<?xml version="1.0" encoding="iso-8859-1"?>
<!-- Generator: Adobe Illustrator 19.0.0, SVG Export Plug-In . SVG Version: 6.00 Build 0)  -->
<svg version="1.1" id="Capa_1" xmlns="http://www.w3.org/2000/svg" xmlns:xlink="http://www.w3.org/1999/xlink" x="0px" y="0px"
	 viewBox="0 0 512 512" style="enable-background:new 0 0 512 512;" xml:space="preserve">
<polygon style="fill:#FADC60;" points="245.389,511.784 231.039,325.285 258.617,252.961 344.359,328.72 319.346,445.473 "/>
<path style="fill:#EFEDEE;" d="M272.267,364.468L137.318,256L1.968,224.198C0.67,234.613,0,245.235,0,256
	c0,25.26,3.657,49.665,10.477,72.72l64.211,86.7l142.165,57.948l47.306-20.501C270.577,422.426,272.576,392.035,272.267,364.468z"/>
<path style="fill:#57D0E6;" d="M258.617,252.961L179.159,111.29H44.792C22.211,144.205,7.108,182.661,1.968,224.198
	c119.017,130.369,253.074,139.61,270.299,140.269C271.545,301.276,258.617,252.961,258.617,252.961z"/>
<path style="fill:#EFEDEE;" d="M410.461,51.836c-28.298-21.437-61.191-37.135-96.936-45.345H256L125.167,57.175L83.96,155.516
	c22.86,21.284,47.934,38.621,71.762,52.447l82.765-23.56l164.829-92.201l7.16-40.362L410.461,51.836z"/>
<path style="fill:#F2C42C;" d="M410.476,51.839h-0.01c-172.04,34.573-245.152,141.042-254.743,156.124
	c54.713,31.75,102.895,44.998,102.895,44.998L303.388,256l179.581-118.512C465.374,103.842,440.516,74.616,410.476,51.839z"/>
<path style="fill:#EFEDEE;" d="M433.397,147.172c15.896-4.564,32.482-7.953,49.572-9.684C501.513,172.926,512,213.237,512,256
	c0,60.276-20.841,115.679-55.692,159.421L433.397,147.172z"/>
<g>
	<path style="fill:#50BFD4;" d="M433.397,147.172c-31.544,9.035-60.389,22.705-85.155,37.231L303.388,256l47.677,237.755
		c38.446-15.381,72.298-39.816,98.908-70.681c0-0.01,0-0.01,0.01-0.021c2.153-2.503,4.265-5.048,6.325-7.634
		C493.539,284.392,450.148,180.282,433.397,147.172z"/>
	<path style="fill:#50BFD4;" d="M313.525,6.49C155.763,32.028,91.13,142.402,83.96,155.516
		c-14.175-13.197-27.506-27.897-39.167-44.226C90.934,44.081,168.321,0,256,0C275.779,0,295.034,2.246,313.525,6.49z"/>
</g>
<path style="fill:#F2C42C;" d="M264.159,452.868c-4.183,19.872-10.25,39.765-18.77,58.916
	C133.944,507.241,40.857,431.44,10.477,328.72C116.472,454.052,254.764,453.084,264.159,452.868z"/>
<path style="fill:#FADC60;" d="M348.242,184.402c-54.795,32.162-89.626,68.559-89.626,68.559s12.929,48.316,13.65,111.507
	c0.309,27.568-1.69,57.958-8.108,88.4c-4.183,19.872-10.25,39.765-18.77,58.916C248.912,511.928,252.446,512,256,512
	c33.594,0,65.674-6.47,95.065-18.234v-0.01C412.526,321.736,352.363,192.891,348.242,184.402z"/>
<g>
</g>
<g>
</g>
<g>
</g>
<g>
</g>
<g>
</g>
<g>
</g>
<g>
</g>
<g>
</g>
<g>
</g>
<g>
</g>
<g>
</g>
<g>
</g>
<g>
</g>
<g>
</g>
<g>
</g>
</svg>
