<svg xmlns="http://www.w3.org/2000/svg" width="250" height="224.815" viewBox="0 0 250 224.815"><g transform="translate(0 0)"><path d="M947.1,777.947v.247c0,.065,0,.132-.005.2a15.228,15.228,0,0,1-3.339,9.237c-.106.137-.218.27-.332.4-.171.2-.348.4-.529.589-.016.016-.031.034-.049.049l-.008.008c-.021.021-.042.044-.062.065q-.479.494-1,.947c-.07.06-.143.122-.218.182a15.254,15.254,0,0,1-9.634,3.518c-.026,0-.055,0-.081,0h-.091c-.026,0-.052,0-.078,0-.091,0-.179,0-.27-.005a15.239,15.239,0,0,1-9.577-3.682c-.073-.06-.145-.122-.215-.187-.278-.244-.545-.5-.8-.765l-.062-.065-.008-.008c-.018-.016-.034-.034-.049-.049-.218-.228-.428-.464-.63-.706q-.168-.2-.327-.4a15.207,15.207,0,0,1-3.251-9.126c-.005-.062-.005-.127-.005-.192v-.241c0-.028,0-.057,0-.086a15.229,15.229,0,0,1,3.194-9.165q.16-.206.327-.4c.205-.249.42-.49.641-.726.016-.018.031-.034.049-.052,0,0,0-.005.005-.008.021-.021.042-.044.065-.065q.432-.448.9-.862c.07-.065.143-.127.215-.187a15.25,15.25,0,0,1,9.782-3.64c.026,0,.055,0,.081,0h.168a15.257,15.257,0,0,1,9.6,3.477l.218.184c.379.322.742.664,1.087,1.022.021.021.041.044.062.065l.005.005c.018.016.036.036.052.052.192.2.376.413.555.625.114.132.223.265.332.4a15.229,15.229,0,0,1,3.282,9.279C947.1,777.9,947.1,777.922,947.1,777.947Z" transform="translate(-709.355 -569.201)" fill="#21c299"/><rect width="0.519" height="30.618" transform="translate(222.042 193.622)" fill="#fff"/><rect width="30.75" height="0.519" transform="translate(206.993 208.671)" fill="#fff"/><path d="M934.288,793.689a11.917,11.917,0,0,0-5.171-9.569q-.167.2-.327.4a11.406,11.406,0,0,1,4.982,9.164c0,.086,0,.171,0,.259s0,.174,0,.259a11.417,11.417,0,0,1-4.922,9.126q.16.206.327.4a11.925,11.925,0,0,0,5.112-9.531c.005-.085.005-.174.005-.259S934.294,793.775,934.288,793.689Z" transform="translate(-718.479 -585.018)" fill="#fff"/><path d="M1000.521,793.89c0-.086,0-.171,0-.259s0-.174,0-.259a11.416,11.416,0,0,1,5.148-9.279c-.109-.138-.218-.27-.332-.4a11.927,11.927,0,0,0-5.333,9.681c-.005.086-.005.174-.005.26s0,.174.005.259a11.923,11.923,0,0,0,5.273,9.639c.114-.132.226-.265.332-.4A11.413,11.413,0,0,1,1000.521,793.89Z" transform="translate(-771.212 -584.7)" fill="#fff"/><rect width="250" height="0.581" transform="translate(0 224.094)" fill="#2f2e41"/><path d="M410.369,124.681a107.563,107.563,0,0,1-29.65,74.35c-.13.138-.262.275-.394.413a107.939,107.939,0,0,1-155.734.06c-.132-.137-.265-.275-.395-.412a107.939,107.939,0,0,1-.348-148.368c.127-.14.259-.278.392-.415a107.941,107.941,0,0,1,156.321-.06c.132.137.265.275.392.415A107.553,107.553,0,0,1,410.369,124.681Z" transform="translate(-174.707 -16.782)" fill="#062633"/><rect width="215.88" height="0.519" transform="translate(19.782 107.68)" fill="#fff"/><rect width="0.519" height="215.88" transform="translate(127.462 0)" fill="#fff"/><path d="M339.008,184.826a92.665,92.665,0,0,0-30.978-38.839c-.132.138-.264.275-.392.415a91.511,91.511,0,0,1,.348,148.368c.13.137.262.275.395.412a92.264,92.264,0,0,0,30.627-110.357Z" transform="translate(-258.498 -112.463)" fill="#fff"/><path d="M765.109,220.476a91.527,91.527,0,0,1,38.046-74.3c-.127-.14-.26-.278-.392-.415a92.193,92.193,0,0,0-.236,149.2c.132-.138.265-.275.394-.413A91.532,91.532,0,0,1,765.109,220.476Z" transform="translate(-596.91 -112.292)" fill="#fff"/><path d="M388.9,704.422l-.719,14.38,7.549,1.438,2.157-13.661Z" transform="translate(-287.462 -521.645)" fill="#9d616a"/><path d="M535.046,720.382l1.8,11.863h6.83l-1.438-12.582Z" transform="translate(-396.217 -532.931)" fill="#9d616a"/><path d="M506.539,614.521,505.1,631.058l-1.438,14.02a12.251,12.251,0,0,1,10.425,1.078s3.235-.719,2.516-14.739l3.235-14.739Z" transform="translate(-403.66 -459.425)" fill="#efefef"/><path d="M626.972,629.147s2.157,12.942,3.235,14.02c0,0,1.781,11.573,2.645,14.5a2.6,2.6,0,0,0,.231.6c.719,1.078,8.628,3.595,8.987-.719s1.438-11.5-2.157-16.9l-2.157-13.661Z" transform="translate(-494.974 -468.659)" fill="#efefef"/><path d="M544.528,499.279c-.359,3.954-20.132,3.235-23.727,3.235a3.09,3.09,0,0,1-3.322-2.139,51.384,51.384,0,0,1-2.157-10.17,18.741,18.741,0,0,1-2.962,8.829c-1.248,1.682-3.311,1.348-5.579.964-3.768-.64-11.256-2.969-13.3-2.516-3.235.719-7.129.791-7.19,0a9.246,9.246,0,0,1,.007-1.3c.474-7.434,7.362-27.588,7.362-29.08,0-1.8,3.235-9.347,3.235-9.347l33.073-3.955s13.1,35.338,14.9,44.038C545.024,498.593,544.557,498.966,544.528,499.279Z" transform="translate(-390.78 -340.409)" fill="#efefef"/><path d="M513.01,770.109l-9.347-1.8.9,14.919,7.37,5.213S511.213,774.063,513.01,770.109Z" transform="translate(-403.66 -573.312)" fill="#efefef"/><path d="M661.924,771.082s-4.673,2.876-8.628,0l3.235,13.3,5.392-.719S664.44,775.755,661.924,771.082Z" transform="translate(-514.468 -575.363)" fill="#efefef"/><path d="M669.159,814.032s-7.549.36-7.549,1.078v11.863c0,1.079,1.438,2.516,1.078,3.235s2.157,2.516,7.909,1.438,3.595-4.673,3.595-4.673S668.44,816.908,669.159,814.032Z" transform="translate(-520.624 -607.169)" fill="#2f2e41"/><path d="M490.553,814.725s8.628.18,8.628.9v11.863c0,1.078-1.438,2.516-1.078,3.235s-2.157,2.516-7.909,1.438-3.6-4.673-3.6-4.673S491.272,817.6,490.553,814.725Z" transform="translate(-390.73 -607.682)" fill="#2f2e41"/><path d="M634.137,624.183c-.36,3.954-21.21,4.314-24.805,4.314-1.136,0-2.056-1.434-2.782-3.4,3.858-.766,20.448-3.89,27.39-2.534A6.6,6.6,0,0,1,634.137,624.183Z" transform="translate(-479.85 -465.133)" fill="#21c299"/><path d="M512.359,619.8a5.207,5.207,0,0,1-5.22,2.4c-3.768-.64-11.615-2.25-13.661-1.8-3.235.719-7.129-1.366-7.19-2.157a9.283,9.283,0,0,1,.007-1.3C493.863,616.743,507.265,616.833,512.359,619.8Z" transform="translate(-390.779 -461.173)" fill="#21c299"/><path d="M332.341,285.173s-6.471-2.157-12.223,4.314l-1.078,2.157s-8.268,2.516-10.785,4.314a44.3,44.3,0,0,0-16.9,0l-9.347-2.157s-17.975-12.582-19.772-4.673,16.9,10.785,16.9,10.785l15.458,4.314s11.863,2.876,16.537.719c0,0,13.3-.719,15.818-5.752l5.392,2.516Z" transform="translate(-224.788 -215.278)" fill="#9d616a"/><path d="M599.166,260.851s13.3-1.438,18.334,5.392l10.425,2.876s11.5-2.157,15.818-1.078l9.347-2.516s8.987-14.38,14.02-10.425-11.863,16.537-11.863,16.537l-22.648,7.55s-17.615,1.438-21.21-5.033l-3.954,8.987-15.1-3.595Z" transform="translate(-469.324 -192.753)" fill="#9d616a"/><circle cx="9.706" cy="9.706" r="9.706" transform="translate(107.553 46.888)" fill="#9d616a"/><path d="M550.77,249.938v7.909l3.6,12.582,10.785-12.582s-2.876-8.628-2.876-10.066S550.77,249.938,550.77,249.938Z" transform="translate(-438.544 -187.592)" fill="#9d616a"/><path d="M555.834,323.035a1.794,1.794,0,0,1-1.812,1.416c-3.275.241-8.79.8-12.388,2-5.392,1.8-21.57,1.8-21.57,1.8l-1.05-32.563.51-2.488c-.359-2.876,2.516-14.38,2.516-14.38l2.1-1.549,1.967-.424.607.536c0,4.788,4.673,9.347,4.673,9.347,6.83-3.235,9.706-10.425,9.706-10.425l2.024-.3,2.117.237,1.916.216-.665.564-.359.719c-.022.043.018-.043,0,0-5.234,11.1,1.086,16.127,5.033,18.334,1.636.92,1.8,1.8,1.8,1.8s1.477-.442,1.438,1.078c-.119,4.921-1.014,16.034.359,19.053C556.553,321.957,555.834,323.035,555.834,323.035Z" transform="translate(-415.028 -208.742)" fill="#efefef"/><path d="M530.68,186.78a24.224,24.224,0,0,1,.82-2.352c.41-.941,0-3.764.41-3.764h1.639l2.049-1.882,1.229.941,1.64-.941,2.049.941,2.049-.941,3.279,2.352.82-.47.82,1.411h.41l1.639,2.352h.82v2.352h.82V192.9l-1.078,4.221-.359-2.071a.131.131,0,0,0-.241-.071l-.78,1.214-.5-1.915a12.8,12.8,0,0,0-4.787-7.162c-3.033-2.2-7.417-3.249-11.925,2.961Z" transform="translate(-423.667 -136.748)" fill="#2f2e41"/><path d="M523.958,280.88c-.683,4.152-2.746,15.634-5.126,18.417l-.029-.87c-.359-2.876,2.157-16.9,2.157-16.9Z" transform="translate(-414.845 -212.354)" fill="#21c299"/><path d="M563.348,275.193c-1.8,3.408-6.974,12.2-11.91,11.623-4.763-.561-5.159-7.672-5.1-10.781l1.147-.248c0,4.789,4.314,8.872,4.314,8.872a18.26,18.26,0,0,0,9.005-9.75Z" transform="translate(-435.257 -207.932)" fill="#21c299"/><path d="M625.831,297.29s-.039.964-.079,2.484a14.961,14.961,0,0,1-2.962-.46c-11.1-2.93-7.858-18.011-6.658-22.4l1.916.216h0l.169.158c-5.234,11.1.737,16.5,4.684,18.712A15.017,15.017,0,0,0,625.831,297.29Z" transform="translate(-485.924 -209.42)" fill="#21c299"/><path d="M650.129,379.441s-1.075.039-2.71.158a85.657,85.657,0,0,1-1.963-9.145c-.474-3.322-.323-11.493-.165-16.67.043-1.355.083-2.509.115-3.311a15.024,15.024,0,0,0,2.926,1.287s-.039.964-.079,2.484c-.119,4.922-.216,15.706,1.158,18.726C651.208,376.925,650.129,379.441,650.129,379.441Z" transform="translate(-508.424 -263.89)" fill="#21c299"/><path d="M534.837,360.121s11.5-5.5,22.648,0" transform="translate(-426.745 -269.223)" fill="#21c299"/><path d="M525.489,466.674a79.68,79.68,0,0,1,11.676.519c8.3.778,22.055-4.411,22.055-4.411" transform="translate(-419.822 -347.058)" fill="#cacaca"/><path d="M263.1,210.947v.247c0,.065,0,.132-.005.2a15.228,15.228,0,0,1-3.339,9.237c-.106.138-.218.27-.332.4-.171.2-.348.4-.529.589-.016.016-.031.034-.049.049l-.008.008-.062.065q-.479.494-1,.947c-.07.06-.143.122-.218.182a15.255,15.255,0,0,1-9.634,3.518c-.026,0-.055,0-.081,0h-.091c-.026,0-.052,0-.078,0-.091,0-.179,0-.27-.005a15.238,15.238,0,0,1-9.577-3.682c-.073-.06-.145-.122-.215-.187-.278-.244-.545-.5-.8-.765l-.062-.065-.008-.008c-.018-.016-.034-.034-.049-.049-.218-.228-.428-.465-.63-.706q-.167-.2-.327-.4a15.209,15.209,0,0,1-3.251-9.126c-.005-.062-.005-.127-.005-.192v-.241c0-.029,0-.057,0-.086a15.229,15.229,0,0,1,3.194-9.165q.16-.206.327-.4c.2-.249.42-.49.641-.727.016-.018.031-.034.049-.052,0,0,0-.005.005-.008.021-.021.042-.044.065-.065q.432-.448.9-.861c.07-.065.143-.127.215-.187a15.251,15.251,0,0,1,9.782-3.64c.026,0,.054,0,.08,0h.169a15.257,15.257,0,0,1,9.6,3.477l.218.184c.379.322.742.664,1.087,1.022l.062.065.005.005c.018.016.036.036.052.052.192.2.376.413.555.625.114.132.223.265.332.4a15.229,15.229,0,0,1,3.282,9.279A.737.737,0,0,1,263.1,210.947Z" transform="translate(-202.833 -149.32)" fill="#21c299"/><rect width="0.519" height="30.618" transform="translate(44.564 46.502)" fill="#fff"/><rect width="30.75" height="0.519" transform="translate(29.515 61.551)" fill="#fff"/><path d="M250.288,226.689a11.917,11.917,0,0,0-5.171-9.569q-.167.2-.327.4a11.406,11.406,0,0,1,4.982,9.164c0,.086,0,.171,0,.26s0,.174,0,.259a11.418,11.418,0,0,1-4.922,9.126q.16.206.327.4a11.926,11.926,0,0,0,5.112-9.53c.005-.086.005-.174.005-.259S250.293,226.775,250.288,226.689Z" transform="translate(-211.957 -165.138)" fill="#fff"/><path d="M316.522,226.89c0-.086,0-.171,0-.259s0-.174,0-.259a11.416,11.416,0,0,1,5.148-9.279c-.109-.138-.218-.27-.332-.4a11.927,11.927,0,0,0-5.332,9.681c-.005.086-.005.174-.005.259s0,.174.005.259a11.923,11.923,0,0,0,5.273,9.639c.114-.132.226-.265.332-.4A11.412,11.412,0,0,1,316.522,226.89Z" transform="translate(-264.69 -164.82)" fill="#fff"/></g></svg>