<svg xmlns="http://www.w3.org/2000/svg" height="512pt" version="1.1" viewBox="-20 0 512 512.00003" width="512pt">
<g id="surface1">
<path d="M 423.019531 321.347656 C 414.683594 321.347656 407.925781 328.109375 407.925781 336.445312 L 407.925781 354.390625 C 407.925781 408.625 363.800781 452.75 309.566406 452.75 L 264.21875 452.75 C 255.882812 452.75 249.125 459.507812 249.125 467.84375 C 249.125 476.179688 255.882812 482.9375 264.21875 482.9375 L 309.566406 482.9375 C 380.449219 482.9375 438.113281 425.273438 438.113281 354.390625 L 438.113281 336.445312 C 438.113281 328.109375 431.355469 321.347656 423.019531 321.347656 Z M 423.019531 321.347656 " style=" stroke:none;fill-rule:nonzero;fill:rgb(5.882353%,66.27451%,86.666667%);fill-opacity:1;" />
<path d="M 432.234375 196.347656 L 432.234375 215.113281 C 432.234375 223.457031 425.472656 230.207031 417.140625 230.207031 C 408.796875 230.207031 402.046875 223.457031 402.046875 215.113281 L 402.046875 196.347656 C 402.046875 104.722656 327.511719 30.1875 235.898438 30.1875 C 144.285156 30.1875 69.75 104.722656 69.75 196.347656 L 69.75 215.113281 C 69.75 223.457031 62.996094 230.207031 54.65625 230.207031 C 46.324219 230.207031 39.558594 223.457031 39.558594 215.113281 L 39.558594 196.347656 C 39.558594 88.082031 127.640625 0 235.898438 0 C 344.152344 0 432.234375 88.082031 432.234375 196.347656 Z M 432.234375 196.347656 " style=" stroke:none;fill-rule:nonzero;fill:rgb(18.431373%,75.294118%,94.117647%);fill-opacity:1;" />
<path d="M 432.234375 196.347656 L 432.234375 215.113281 C 432.234375 223.457031 425.472656 230.207031 417.140625 230.207031 C 408.796875 230.207031 402.046875 223.457031 402.046875 215.113281 L 402.046875 196.347656 C 402.046875 104.722656 327.511719 30.1875 235.898438 30.1875 L 235.898438 0 C 344.152344 0 432.234375 88.082031 432.234375 196.347656 Z M 432.234375 196.347656 " style=" stroke:none;fill-rule:nonzero;fill:rgb(5.882353%,66.27451%,86.666667%);fill-opacity:1;" />
<path d="M 307.324219 465.417969 L 307.324219 468.195312 C 307.324219 492.347656 287.671875 512 263.519531 512 L 221.75 512 C 197.589844 512 177.945312 492.347656 177.945312 468.195312 L 177.945312 465.417969 C 177.945312 441.269531 197.589844 421.613281 221.75 421.613281 L 263.519531 421.613281 C 287.671875 421.613281 307.324219 441.269531 307.324219 465.417969 Z M 307.324219 465.417969 " style=" stroke:none;fill-rule:nonzero;fill:rgb(100%,39.215686%,14.901961%);fill-opacity:1;" />
<path d="M 94.21875 200.015625 L 55.503906 200.015625 C 24.898438 200.015625 0 227.253906 0 260.738281 L 0 290.8125 C 0 324.296875 24.898438 351.539062 55.503906 351.539062 L 94.21875 351.539062 C 102.554688 351.539062 109.3125 344.78125 109.3125 336.445312 L 109.3125 215.109375 C 109.3125 206.769531 102.558594 200.015625 94.21875 200.015625 Z M 94.21875 200.015625 " style=" stroke:none;fill-rule:nonzero;fill:rgb(100%,58.039216%,41.568627%);fill-opacity:1;" />
<path d="M 416.292969 200.015625 L 377.574219 200.015625 C 369.238281 200.015625 362.480469 206.773438 362.480469 215.109375 L 362.480469 336.445312 C 362.480469 344.78125 369.238281 351.539062 377.574219 351.539062 L 416.292969 351.539062 C 446.894531 351.539062 471.792969 324.296875 471.792969 290.8125 L 471.792969 260.738281 C 471.792969 227.253906 446.894531 200.015625 416.292969 200.015625 Z M 416.292969 200.015625 " style=" stroke:none;fill-rule:nonzero;fill:rgb(100%,58.039216%,41.568627%);fill-opacity:1;" />
<path d="M 147.839844 173.6875 L 126.242188 173.6875 C 100.261719 173.6875 79.121094 194.828125 79.121094 220.808594 L 79.121094 330.75 C 79.121094 356.734375 100.261719 377.871094 126.242188 377.871094 L 147.839844 377.871094 C 156.175781 377.871094 162.933594 371.113281 162.933594 362.777344 L 162.933594 188.78125 C 162.933594 180.445312 156.175781 173.6875 147.839844 173.6875 Z M 147.839844 173.6875 " style=" stroke:none;fill-rule:nonzero;fill:rgb(100%,87.058824%,33.333333%);fill-opacity:1;" />
<path d="M 345.550781 173.6875 L 323.953125 173.6875 C 315.617188 173.6875 308.859375 180.445312 308.859375 188.78125 L 308.859375 362.777344 C 308.859375 371.113281 315.617188 377.871094 323.953125 377.871094 L 345.550781 377.871094 C 371.535156 377.871094 392.675781 356.734375 392.675781 330.75 L 392.675781 220.808594 C 392.675781 194.828125 371.535156 173.6875 345.550781 173.6875 Z M 345.550781 173.6875 " style=" stroke:none;fill-rule:nonzero;fill:rgb(100%,87.058824%,33.333333%);fill-opacity:1;" />
<path d="M 109.316406 275.785156 L 109.316406 336.441406 C 109.316406 344.785156 102.554688 351.535156 94.222656 351.535156 L 55.5 351.535156 C 24.898438 351.535156 0.00390625 324.296875 0.00390625 290.816406 L 0.00390625 275.785156 Z M 109.316406 275.785156 " style=" stroke:none;fill-rule:nonzero;fill:rgb(100%,48.627451%,28.235294%);fill-opacity:1;" />
<path d="M 471.792969 275.785156 L 471.792969 290.816406 C 471.792969 324.296875 446.894531 351.535156 416.292969 351.535156 L 377.574219 351.535156 C 369.242188 351.535156 362.476562 344.785156 362.476562 336.441406 L 362.476562 275.785156 Z M 471.792969 275.785156 " style=" stroke:none;fill-rule:nonzero;fill:rgb(100%,48.627451%,28.235294%);fill-opacity:1;" />
<path d="M 162.929688 275.785156 L 162.929688 362.777344 C 162.929688 371.121094 156.179688 377.871094 147.835938 377.871094 L 126.242188 377.871094 C 107.714844 377.871094 91.644531 367.125 83.957031 351.535156 C 80.859375 345.257812 79.117188 338.203125 79.117188 330.746094 L 79.117188 275.785156 Z M 162.929688 275.785156 " style=" stroke:none;fill-rule:nonzero;fill:rgb(100%,80.392157%,0%);fill-opacity:1;" />
<path d="M 392.675781 275.785156 L 392.675781 330.746094 C 392.675781 338.203125 390.9375 345.257812 387.835938 351.535156 C 380.148438 367.125 364.078125 377.871094 345.550781 377.871094 L 323.957031 377.871094 C 315.617188 377.871094 308.863281 371.121094 308.863281 362.777344 L 308.863281 275.785156 Z M 392.675781 275.785156 " style=" stroke:none;fill-rule:nonzero;fill:rgb(100%,80.392157%,0%);fill-opacity:1;" />
<path d="M 307.324219 466.808594 L 307.324219 468.195312 C 307.324219 492.347656 287.671875 512 263.519531 512 L 221.75 512 C 197.589844 512 177.945312 492.347656 177.945312 468.195312 L 177.945312 466.808594 Z M 307.324219 466.808594 " style=" stroke:none;fill-rule:nonzero;fill:rgb(100%,48.627451%,28.235294%);fill-opacity:1;" />
</g>
</svg>