<svg id="Capa_1" enable-background="new 0 0 512 512" height="512" viewBox="0 0 512 512" width="512" xmlns="http://www.w3.org/2000/svg"><path d="m512 320.52c0 68.393-114.615 123.837-256 123.837s-256-55.443-256-123.837v-129.04h512z" fill="#544f56"/><path d="m468.293 191.48v129.04c0 64.832-102.993 118.019-234.146 123.384 7.205.295 14.491.454 21.854.454 141.385 0 256-55.444 256-123.837v-129.041z" fill="#444145"/><ellipse cx="256" cy="191.48" fill="#766d78" rx="256" ry="123.837"/><g fill="#655e67"><path d="m256 67.642c-4.538 0-9.048.059-13.528.172 135.095 3.403 242.472 57.467 242.472 123.665s-107.377 120.263-242.472 123.666c4.48.113 8.99.172 13.528.172 141.385 0 256-55.444 256-123.837s-114.615-123.838-256-123.838z"/><ellipse cx="256" cy="191.48" rx="191.48" ry="77.008"/></g></svg>