<?xml version="1.0" encoding="iso-8859-1"?>
<!-- Generator: Adobe Illustrator 19.0.0, SVG Export Plug-In . SVG Version: 6.00 Build 0)  -->
<svg version="1.1" id="Layer_1" xmlns="http://www.w3.org/2000/svg" xmlns:xlink="http://www.w3.org/1999/xlink" x="0px" y="0px"
	 viewBox="0 0 511.975 511.975" style="enable-background:new 0 0 511.975 511.975;" xml:space="preserve">
<path style="fill:#FC6E51;" d="M467.258,291.066c17.093-34.091,30.046-71.582,37.451-108.424
	c14.202-70.691,7.218-132.54-17.812-157.57C461.883,0.05,400.026-6.941,329.342,7.261c-36.857,7.406-74.339,20.358-108.432,37.467
	c-38.967,19.554-73.527,44.271-102.713,73.465c-29.202,29.186-53.919,63.747-73.465,102.721
	c-17.108,34.084-30.061,71.574-37.467,108.432C-6.936,400.029,0.048,461.884,25.077,486.9c25.03,25.029,86.871,32.014,157.57,17.811
	c36.842-7.406,74.324-20.357,108.416-37.451c38.967-19.561,73.527-44.279,102.729-73.465
	C422.979,364.593,447.696,330.033,467.258,291.066z"/>
<path style="fill:#E9573F;" d="M164.867,347.11c-4.171-4.156-4.171-10.922,0-15.077L330.78,166.104
	c4.172-4.164,10.922-4.164,15.094,0c4.155,4.171,4.155,10.921,0,15.085l-165.929,165.92
	C175.788,351.281,169.039,351.281,164.867,347.11z"/>
<g>
	<path style="fill:#E6E9ED;" d="M225.208,332.033L225.208,332.033l-45.263-45.248c-4.156-4.172-4.156-10.922,0-15.093
		c4.171-4.164,10.921-4.164,15.093,0l0,0l45.248,45.247c4.172,4.172,4.172,10.922,0,15.094
		C236.113,336.188,229.363,336.188,225.208,332.033z"/>
	<path style="fill:#E6E9ED;" d="M270.456,286.785L270.456,286.785l-45.248-45.263c-4.172-4.164-4.172-10.914,0-15.085
		c4.156-4.164,10.906-4.164,15.077,0l0,0l45.247,45.255c4.172,4.171,4.172,10.921,0,15.093
		C281.377,290.941,274.611,290.941,270.456,286.785z"/>
	<path style="fill:#E6E9ED;" d="M270.456,196.275c-4.172-4.164-4.172-10.921,0-15.085c4.155-4.164,10.921-4.164,15.076,0
		l45.248,45.247c4.172,4.172,4.172,10.922,0,15.085c-4.156,4.164-10.905,4.164-15.077,0L270.456,196.275z"/>
	<path style="fill:#E6E9ED;" d="M24.749,267.333c-7.406,20.39-13.327,41.295-17.483,62.013c-1.516,7.53-2.781,14.968-3.828,22.264
		l156.929,156.93c7.312-1.047,14.733-2.312,22.28-3.828c20.702-4.156,41.607-10.077,61.997-17.483L24.749,267.333z"/>
	<path style="fill:#E6E9ED;" d="M487.225,244.648c7.422-20.397,13.327-41.302,17.483-62.004c1.516-7.539,2.796-14.968,3.827-22.264
		L351.607,3.441c-7.296,1.039-14.733,2.312-22.265,3.828c-20.701,4.156-41.623,10.07-62.012,17.491L487.225,244.648z"/>
</g>
<path style="opacity:0.1;fill:#080808;enable-background:new    ;" d="M467.258,291.066c17.093-34.091,30.046-71.582,37.451-108.424
	c14.202-70.691,7.218-132.54-17.812-157.57c-2.422-2.43-5.203-4.688-8.312-6.773c19.406,28.819,23.874,85.433,11.047,149.258
	c-7.406,36.842-20.358,74.332-37.467,108.415c-19.562,38.982-44.279,73.544-73.465,102.729
	c-29.187,29.187-63.747,53.903-102.729,73.465c-34.076,17.108-71.574,30.062-108.416,37.467
	c-63.825,12.827-120.431,8.374-149.258-11.046c2.094,3.109,4.359,5.891,6.781,8.312c25.03,25.029,86.871,32.014,157.57,17.811
	c36.842-7.406,74.324-20.357,108.416-37.451c38.967-19.561,73.527-44.279,102.729-73.465
	C422.979,364.593,447.696,330.033,467.258,291.066z"/>
<g>
</g>
<g>
</g>
<g>
</g>
<g>
</g>
<g>
</g>
<g>
</g>
<g>
</g>
<g>
</g>
<g>
</g>
<g>
</g>
<g>
</g>
<g>
</g>
<g>
</g>
<g>
</g>
<g>
</g>
</svg>
