<svg id="Capa_1" enable-background="new 0 0 512 512" height="512" viewBox="0 0 512 512" width="512" xmlns="http://www.w3.org/2000/svg"><g><g><g><g><path d="m512 75c0-20.68-8.41-39.42-21.99-53.01-13.58-13.58-32.33-21.99-53.01-21.99-35.53 0-70.15 4.3-103.35 12.43l5.85 26.07-38.81-16.59c-65.38 21.64-124.22 58.44-172.28 106.5-49.82 49.82-85.56 108.96-106.48 172.3l8.57 28.79-18.04 4.18c-8.27 33.78-12.46 68.46-12.46 103.32 0 20.68 8.41 39.42 21.99 53.01 13.58 13.58 32.33 21.99 53.01 21.99 35.53 0 70.16-4.3 103.36-12.43v-20.07l32.94 10.59c65.39-21.63 124.23-58.44 172.29-106.5 49.82-49.82 85.56-108.96 106.48-172.3l-12.07-36.79 21.54 3.82c8.27-33.78 12.46-68.46 12.46-103.32z" fill="#a34f3e"/></g></g></g><path d="m499.54 178.32-21.54-3.82 12.07 36.79c-20.92 63.34-56.66 122.48-106.48 172.3-48.06 48.06-106.9 84.87-172.29 106.5l-32.94-10.59v20.07c-33.2 8.13-67.83 12.43-103.36 12.43-20.68 0-39.43-8.41-53.01-21.99l468.02-468.02c13.58 13.59 21.99 32.33 21.99 53.01 0 34.86-4.19 69.54-12.46 103.32z" fill="#873f2e"/><g><g><path d="m371.61 161.61-210 210c-5.86 5.85-15.36 5.85-21.22 0-5.85-5.86-5.85-15.36 0-21.22l210-210c5.86-5.85 15.36-5.85 21.22 0 5.85 5.86 5.85 15.36 0 21.22z" fill="#5b5555"/></g></g><path d="m371.61 161.61-210 210c-5.86 5.85-15.36 5.85-21.22 0l231.22-231.22c5.85 5.86 5.85 15.36 0 21.22z" fill="#463f3f"/><g><g><path d="m341.61 221.61c-5.86 5.85-15.36 5.85-21.22 0l-30-30c-5.85-5.86-5.85-15.36 0-21.22 5.86-5.85 15.36-5.85 21.22 0l30 30c5.85 5.86 5.85 15.36 0 21.22z" fill="#fff7cc"/></g></g><g><g><path d="m281.61 281.61c-5.86 5.85-15.36 5.85-21.22 0l-30-30c-5.85-5.86-5.85-15.36 0-21.22 5.86-5.85 15.36-5.85 21.22 0l30 30c5.85 5.86 5.85 15.36 0 21.22z" fill="#fff7cc"/></g></g><g><g><path d="m221.61 341.61c-5.86 5.85-15.36 5.85-21.22 0l-30-30c-5.85-5.86-5.85-15.36 0-21.22 5.86-5.85 15.36-5.85 21.22 0l30 30c5.85 5.86 5.85 15.36 0 21.22z" fill="#fff7cc"/></g></g><g fill="#ffca80"><path d="m221.61 320.39c5.85 5.86 5.85 15.36 0 21.22-5.86 5.85-15.36 5.85-21.22 0l-15-15 21.22-21.22z"/><path d="m281.61 260.39c5.85 5.86 5.85 15.36 0 21.22-5.86 5.85-15.36 5.85-21.22 0l-15-15 21.22-21.22z"/><path d="m341.61 221.61c-5.86 5.85-15.36 5.85-21.22 0l-15-15 21.22-21.22 15 15c5.85 5.86 5.85 15.36 0 21.22z"/></g><g><path d="m499.54 178.32c-2.71 11.1-5.87 22.1-9.47 32.97l-189.38-189.38c10.81-3.58 21.8-6.75 32.96-9.48l82.96 82.96z" fill="#fff7cc"/></g><path d="m499.54 178.32c-2.71 11.1-5.87 22.1-9.47 32.97l-94.68-94.68 21.22-21.22z" fill="#ffca80"/><g><path d="m211.3 490.09c-10.8 3.59-21.79 6.75-32.94 9.48l-82.97-82.96-82.93-82.93c2.71-11.1 5.87-22.1 9.47-32.97l94.68 94.68z" fill="#fff7cc"/></g><path d="m211.3 490.09c-10.8 3.59-21.79 6.75-32.94 9.48l-82.97-82.96 21.22-21.22z" fill="#ffca80"/></g></svg>