<?xml version="1.0" encoding="UTF-8"?>
<svg width="321pt" xmlns:xlink="http://www.w3.org/1999/xlink" xmlns="http://www.w3.org/2000/svg" height="663pt" viewBox="0 0 321 663" >
 <g transform="translate(73.8545, 378.091)" style="fill:#002055; fill-rule:nonzero; stroke:none; stroke-width:1; stroke-linecap:butt; stroke-linejoin:miter; stroke-dasharray:none;" >
  <path d="M21.6953 39.844 C20.5684 39.638 18.332 39.655 16.0986 42.084 C12.5605 45.919 10.8984 51.117 11.1553 57.519 C11.2256 59.152 11.4541 60.067 11.916 61.383 C12.7402 63.71 14.7226 65.248 16.1709 65.511 C17.8926 65.826 19.835 64.82 21.6484 62.673 C25.6113 57.971 27.3215 49.349 25.3769 43.848 C24.5693 41.554 23.2646 40.132 21.6953 39.844 Z M105.443 103.19 C107.428 107.478 110.887 109.956 113.463 110.844 C116.81 112.005 125.667 113.865 133.025 114.672 C141.095 115.565 147.404 111.076 151 102.003 C148.299 101.848 145.407 101.532 142.416 101.116 C141.856 102.942 141.141 104.763 140.218 106.379 C139.525 107.599 137.977 108.02 136.756 107.33 C135.536 106.636 135.111 105.083 135.805 103.859 C136.416 102.786 136.919 101.57 137.338 100.316 C135.76 100.047 134.172 99.747 132.6 99.445 C132.06 101.553 131.443 103.556 130.794 105.054 C130.234 106.341 128.732 106.926 127.446 106.367 C126.156 105.807 125.573 104.309 126.131 103.022 C126.657 101.818 127.16 100.185 127.621 98.414 C126.797 98.234 125.981 98.052 125.172 97.87 C124.319 97.678 123.443 97.471 122.571 97.261 C122.113 98.734 121.576 100.266 120.917 101.818 C120.376 103.11 118.876 103.715 117.584 103.169 C116.294 102.625 115.684 101.132 116.231 99.841 C116.779 98.561 117.232 97.286 117.619 96.058 C113.335 94.972 108.934 93.764 104.47 92.462 C103.398 97.144 104.332 100.804 105.443 103.19 Z M152.549 96.975 C153.59 91.812 152.463 88.219 151.208 86.022 C149.636 83.247 147.031 81.261 144.083 80.571 C144.083 80.571 140.859 79.893 140.859 79.893 C137.925 79.3 133.5 78.4 126.869 76.744 C117.987 74.527 110.366 78.593 106.157 87.663 C110.483 88.921 114.746 90.084 118.898 91.136 C119.568 87.905 119.709 85.664 119.709 85.624 C119.795 84.225 121 83.157 122.4 83.239 C123.8 83.321 124.869 84.518 124.785 85.923 C124.778 86.105 124.613 88.675 123.842 92.342 C124.665 92.535 125.487 92.729 126.295 92.91 C127.129 93.102 127.949 93.283 128.752 93.452 C129.477 89.878 129.944 86.841 129.957 86.78 C130.166 85.393 131.463 84.441 132.847 84.651 C134.239 84.859 135.191 86.155 134.986 87.543 C134.948 87.787 134.477 90.829 133.732 94.475 C135.435 94.808 137.052 95.098 138.583 95.36 C139.148 92.277 139.285 89.826 139.285 89.78 C139.352 88.378 140.547 87.297 141.949 87.367 C143.355 87.434 144.436 88.625 144.364 90.024 C144.356 90.233 144.218 92.807 143.614 96.12 C147.136 96.6 150.095 96.862 152.549 96.975 Z M167.398 64.792 C167.023 55.512 165.15 46.652 162.02 38.428 C158.169 28.344 145.303 21.193 128.353 17.354 C97.0185 10.27 55.8585 21.972 29.6675 44.007 C30.6735 48.026 30.3765 52.819 29.0255 57.192 C47.8965 67.339 75.3435 78.322 101.238 86.203 C107.333 72.208 119 69.54 128.101 71.815 C134.619 73.441 138.81 74.293 141.869 74.909 C141.869 74.909 145.236 75.62 145.236 75.62 C149.56 76.632 153.356 79.506 155.631 83.51 C157.246 86.339 158.726 90.813 157.714 96.975 C160.896 96.789 162.436 96.255 162.792 95.834 C166.189 86.147 167.843 75.667 167.398 64.792 Z M132.47 119.735 C125.395 118.949 115.931 117.079 111.799 115.649 C107.188 114.054 103.084 110.201 100.831 105.332 C99.8965 103.321 99.0505 100.645 98.9165 97.4 C98.8395 95.459 99.0255 93.321 99.5925 91.006 C73.6575 83.096 46.1845 72.11 27.0595 61.897 C26.3855 63.129 25.6172 64.275 24.7539 65.296 C23.3154 66.998 21.7002 68.232 20.0361 68.937 C21.833 84.85 27.3585 100.443 36.1575 114.029 C47.8295 132.051 63.7265 144.401 80.8985 148.288 C86.9865 149.66 94.9435 151.372 102.064 149.795 C128.458 143.951 149.977 125.693 160.492 101.675 C159.26 101.894 157.876 102.02 156.39 102.071 C150.369 119.693 137.703 120.312 132.47 119.735 Z M9.8799 45.356 C10.7422 43.395 11.8232 41.586 13.1103 40.06 C14.1465 38.841 15.249 37.87 16.4189 37.151 C19.5293 22.661 26.0215 9.757 35.5125 0 C21.3418 10.076 10.4805 24.442 4.7715 41.111 C5.5293 42.15 7.5439 43.717 9.8799 45.356 Z M8.2685 50.294 C6.2109 48.827 4.4473 47.454 3.1934 46.256 C1.0088 54.304 0 62.818 0.3584 71.591 C0.4287 73.364 0.5557 75.119 0.7314 76.858 C1.9951 71.674 4.4853 66.258 8.0527 60.734 C7.3633 57.502 7.4726 53.826 8.2685 50.294 Z M14.958 69.412 C13.1152 68.951 11.5254 67.809 10.2969 66.094 C4.0693 75.702 1.4434 84.292 3.7324 92.001 C13.3135 124.351 41.8555 148.243 76.0385 151.424 C43.3695 141.501 19.1924 107.46 14.958 69.412 Z" />
 </g>
 <g transform="translate(71.0898, 0.166992)" style="fill:#ffffff; fill-rule:nonzero; stroke:none; stroke-width:1; stroke-linecap:butt; stroke-linejoin:miter; stroke-dasharray:none;" >
  <path d="M50.4252 0 C17.6768 0 9.9141 16.791 9.9141 16.791 C9.9141 16.791 47.7002 14.0605 47.7002 51.3799 C47.7002 68.1738 38.5602 79.5586 28.8858 91.6055 C17.6465 105.596 4.9151 121.455 4.9151 148.059 C4.9151 192.097 33.2072 212.758 58.1682 230.983 C79.9142 246.865 100.452 261.864 100.452 290.104 C100.452 318.502 87.9972 340.518 82.3122 346.2 C72.7782 355.735 64.1852 357.468 57.2882 358.864 C50.2032 360.293 43.5092 361.667 42.1032 371.846 C15.8838 387.593 0 415.64 0 446.069 C0 447.254 0.0245 448.447 0.0723 449.64 C1.0137 472.766 10.9073 494.141 27.9229 509.824 C44.9392 525.51 67.0472 533.626 90.1692 532.684 C113.294 531.742 134.665 521.849 150.351 504.837 C166.038 487.821 174.155 465.711 173.209 442.592 C171.777 407.291 149.375 376.694 116.141 364.647 C116.141 364.647 116.268 364.694 116.268 364.694 C116.247 364.685 115.815 364.512 115.815 364.512 C115.81 364.508 115.031 364.237 115.031 364.237 C110.828 362.786 106.06 361.138 106.06 350.328 C106.06 339.853 110.815 338.984 120.279 337.246 C125.905 336.213 132.788 334.951 139.538 330.827 C151.552 323.493 153.806 314.646 151.619 312.462 C148.643 309.481 145.361 315.742 133.268 319.386 C128.909 320.702 124.521 321.467 121.557 321.467 C119.093 321.467 117.253 321.26 115.902 321.015 C122.253 309.115 129.368 299.376 129.447 299.273 C129.447 299.273 130.997 297.163 130.997 297.163 C130.997 297.163 129.144 295.31 129.144 295.31 C126.687 292.854 125.273 287.744 125.273 280.892 C125.273 272.438 127.424 261.336 132.413 249.283 C138.317 235.04 161.747 188.556 215.488 188.556 C215.488 188.556 218.539 188.556 218.539 188.556 C218.539 188.556 218.539 185.505 218.539 185.505 C218.539 166.292 216.783 148.623 213.325 132.986 C213.325 132.986 212.651 129.948 212.651 129.948 C212.651 129.948 207.434 131.43 203.088 132.399 C202.57 132.513 198.505 133.512 198.321 132.654 C198.157 131.896 201.296 130.319 202.381 129.775 C206.462 127.746 211.549 125.61 211.549 125.61 C211.549 125.61 210.848 123.165 210.848 123.165 C207.014 109.787 203.155 103.393 202.99 103.126 C202.99 103.126 201.745 101.088 201.745 101.088 C201.745 101.088 199.473 101.807 199.473 101.807 C154.721 115.905 145.151 145.602 139.433 163.342 C136.65 171.963 134.93 176.839 131.817 176.839 C122.58 176.839 114.939 169.2 112.428 166.689 C84.5262 138.785 86.6632 118.667 89.9032 88.2139 C91.0512 77.4668 92.3482 65.2881 92.3482 51.3799 C92.3482 16.3271 79.0272 0 50.4252 0 " />
 </g>
 <g transform="translate(73.8545, 3.2168)" style="fill:#002055; fill-rule:nonzero; stroke:none; stroke-width:1; stroke-linecap:butt; stroke-linejoin:miter; stroke-dasharray:none;" >
  <path d="M21.6953 414.718 C20.5684 414.512 18.332 414.529 16.0986 416.958 C12.5605 420.793 10.8984 425.991 11.1553 432.393 C11.2256 434.026 11.4541 434.941 11.916 436.257 C12.7402 438.584 14.7226 440.122 16.1709 440.385 C17.8926 440.7 19.835 439.694 21.6484 437.547 C25.6113 432.845 27.3215 424.223 25.3769 418.722 C24.5693 416.428 23.2646 415.006 21.6953 414.718 Z M152.549 471.849 C153.59 466.686 152.463 463.093 151.208 460.896 C149.636 458.121 147.031 456.135 144.083 455.445 C144.083 455.445 140.859 454.767 140.859 454.767 C137.925 454.174 133.5 453.274 126.869 451.618 C117.987 449.401 110.366 453.467 106.157 462.537 C110.483 463.795 114.746 464.958 118.898 466.01 C119.568 462.779 119.709 460.538 119.709 460.498 C119.795 459.099 121 458.031 122.4 458.113 C123.8 458.195 124.869 459.392 124.785 460.797 C124.778 460.979 124.613 463.549 123.842 467.216 C124.665 467.409 125.487 467.603 126.295 467.784 C127.129 467.976 127.949 468.157 128.752 468.326 C129.477 464.752 129.944 461.715 129.957 461.654 C130.166 460.267 131.463 459.315 132.847 459.525 C134.239 459.733 135.191 461.029 134.986 462.417 C134.948 462.661 134.477 465.703 133.732 469.349 C135.435 469.682 137.052 469.972 138.583 470.234 C139.148 467.151 139.285 464.7 139.285 464.654 C139.352 463.252 140.547 462.171 141.949 462.241 C143.355 462.308 144.436 463.499 144.364 464.898 C144.356 465.107 144.218 467.681 143.614 470.994 C147.136 471.474 150.095 471.736 152.549 471.849 Z M105.443 478.064 C107.428 482.352 110.887 484.83 113.463 485.718 C116.81 486.879 125.667 488.739 133.025 489.546 C141.095 490.439 147.404 485.95 151 476.877 C148.299 476.722 145.407 476.406 142.416 475.99 C141.856 477.816 141.141 479.637 140.218 481.253 C139.525 482.473 137.977 482.894 136.756 482.204 C135.536 481.51 135.111 479.957 135.805 478.733 C136.416 477.66 136.919 476.444 137.338 475.19 C135.76 474.921 134.172 474.621 132.6 474.319 C132.06 476.427 131.443 478.43 130.794 479.928 C130.234 481.215 128.732 481.8 127.446 481.241 C126.156 480.681 125.573 479.183 126.131 477.896 C126.657 476.692 127.16 475.059 127.621 473.288 C126.797 473.108 125.981 472.926 125.172 472.744 C124.319 472.552 123.443 472.345 122.571 472.135 C122.113 473.608 121.576 475.14 120.917 476.692 C120.376 477.984 118.876 478.589 117.584 478.043 C116.294 477.499 115.684 476.006 116.231 474.715 C116.779 473.435 117.232 472.16 117.619 470.932 C113.335 469.846 108.934 468.638 104.47 467.336 C103.398 472.018 104.332 475.678 105.443 478.064 Z M162.02 413.302 C158.169 403.218 145.303 396.067 128.353 392.228 C97.0185 385.144 55.8585 396.846 29.6675 418.881 C30.6735 422.9 30.3765 427.693 29.0255 432.066 C47.8965 442.213 75.3435 453.196 101.238 461.077 C107.333 447.082 119 444.414 128.101 446.689 C134.619 448.315 138.81 449.167 141.869 449.783 C141.869 449.783 145.236 450.494 145.236 450.494 C149.56 451.506 153.356 454.38 155.631 458.384 C157.246 461.213 158.726 465.687 157.714 471.849 C160.896 471.663 162.436 471.129 162.792 470.708 C166.189 461.021 167.843 450.541 167.398 439.666 C167.023 430.386 165.15 421.526 162.02 413.302 Z M132.47 494.609 C125.395 493.823 115.931 491.953 111.799 490.523 C107.188 488.928 103.084 485.075 100.831 480.206 C99.8965 478.195 99.0505 475.519 98.9165 472.274 C98.8395 470.333 99.0255 468.195 99.5925 465.88 C73.6575 457.97 46.1845 446.984 27.0595 436.771 C26.3855 438.003 25.6172 439.149 24.7539 440.17 C23.3154 441.872 21.7002 443.106 20.0361 443.811 C21.833 459.724 27.3585 475.317 36.1575 488.903 C47.8295 506.925 63.7265 519.275 80.8985 523.162 C86.9865 524.534 94.9435 526.246 102.064 524.669 C128.458 518.825 149.977 500.567 160.492 476.549 C159.26 476.768 157.876 476.894 156.39 476.945 C150.369 494.567 137.703 495.186 132.47 494.609 Z M9.8799 420.23 C10.7422 418.269 11.8232 416.46 13.1103 414.934 C14.1465 413.715 15.249 412.744 16.4189 412.025 C19.5293 397.535 26.0215 384.631 35.5125 374.874 C21.3418 384.95 10.4805 399.316 4.7715 415.985 C5.5293 417.024 7.5439 418.591 9.8799 420.23 Z M8.2685 425.168 C6.2109 423.701 4.4473 422.328 3.1934 421.13 C1.0088 429.178 0 437.692 0.3584 446.465 C0.4287 448.238 0.5557 449.993 0.7314 451.732 C1.9951 446.548 4.4853 441.132 8.0527 435.608 C7.3633 432.376 7.4726 428.7 8.2685 425.168 Z M14.958 444.286 C13.1152 443.825 11.5254 442.683 10.2969 440.968 C4.0693 450.576 1.4434 459.166 3.7324 466.875 C13.3135 499.225 41.8555 523.117 76.0385 526.298 C43.3695 516.375 19.1924 482.334 14.958 444.286 Z M55.1925 48.3301 C55.1925 43.6719 54.6915 39.4648 53.7825 35.6699 C53.7825 35.6699 61.3025 35.2773 61.3025 26.124 C61.3025 18.5811 56.2695 13.4355 54.9195 13.4355 C53.8305 13.4355 53.5615 14.5918 51.2045 14.5918 C45.4615 14.5918 45.0405 7.2529 45.0405 7.2529 C45.8905 7.2236 46.7645 7.2109 47.6605 7.2109 C64.1045 7.2109 79.3245 12.1904 79.3245 48.3301 C79.3245 61.6943 78.0585 73.5859 76.9425 84.0781 C75.8365 94.4395 74.8135 104.079 75.1085 113.491 C75.1085 113.491 46.4735 110.116 46.4735 88.5732 C46.4735 74.5859 55.1925 71.1816 55.1925 48.3301 Z M100.738 287.054 C100.738 315.337 88.6745 338.337 81.7055 345.305 C60.1075 366.905 42.2925 351.176 42.0985 372.846 C32.2975 381.722 25.2471 395.217 21.7871 410.63 C22.0019 410.651 22.2168 410.681 22.4268 410.721 C24.4551 411.091 26.1965 412.25 27.5265 414.08 C54.9585 391.723 97.1945 379.968 129.477 387.269 C139.741 389.589 148.446 393.378 155.04 399.176 C145.125 383.141 129.97 370.766 112.055 364.345 C107.803 362.82 100.246 361.075 100.246 347.278 C100.246 321.529 128.416 341.547 146.977 313.502 C147.886 312.117 146.578 310.908 145.488 311.997 C139.875 317.607 126.085 321.468 118.792 321.468 C111.492 321.468 108.746 319.805 108.746 319.805 C115.637 306.091 124.222 294.418 124.222 294.418 C106.991 277.187 135.991 182.455 212.723 182.455 C212.723 160.481 210.401 143.341 207.581 130.595 C205.754 131.039 191.302 134.447 190.641 131.409 C190.056 128.716 201.287 122.878 205.153 120.957 C201.383 107.823 197.626 101.667 197.626 101.667 C131.857 122.388 145.076 176.84 129.053 176.84 C118.625 176.84 110.433 168.723 107.507 165.797 C68.2255 126.519 86.5335 100.525 86.5335 48.3301 C86.5335 13.1689 72.8775 0 47.6605 0 C22.4443 0 13.4346 10.9199 13.4346 10.9199 C13.4346 10.9199 47.9855 12.0391 47.9855 48.3301 C47.9855 86.3232 5.2002 96.8102 5.2002 145.009 C5.2002 225.241 100.738 223.734 100.738 287.054 Z" />
 </g>
 <g transform="translate(0, 510.6)" style="fill:#002055; fill-rule:nonzero; stroke:none; stroke-width:1; stroke-linecap:butt; stroke-linejoin:miter; stroke-dasharray:none;" >
  <path d="M29.7998 8.819 C36.2109 13.049 43.0029 16.853 43.0029 16.853 C43.0029 16.853 40.626 23.013 40.626 23.013 C39.7383 19.28 36.0352 17.256 31.2598 14.299 C31.2598 14.299 15.6191 36.915 15.6191 36.915 C13.709 39.642 9.98438 45.613 9.68555 47.94 C9.68555 47.94 7.11816 46.311 4.77637 44.566 C2.32715 42.738 0 41.047 0 41.047 C2.33105 40.48 6.35742 34.542 8.78516 31.251 C8.78516 31.251 24.002 9.54 24.002 9.54 C18.3027 5.134 16.0771 4.272 12.0508 4.061 C12.0508 4.061 17.4658 0 17.4658 0 C17.4658 0 22.6719 4.12 29.7998 8.819 " />
 </g>
 <g transform="translate(274.679, 596.031)" style="fill:#002055; fill-rule:nonzero; stroke:none; stroke-width:1; stroke-linecap:butt; stroke-linejoin:miter; stroke-dasharray:none;" >
  <path d="M2.962 0 C2.962 0 3.433 0.517 3.433 0.517 C2.991 0.493 2.625 0.722 2.149 0.99 C2.149 0.99 3.522 3.627 3.522 3.627 C3.79 4.115 4.17 4.856 4.418 4.911 C4.418 4.911 4.124 5.078 3.773 5.256 C3.467 5.407 3.176 5.525 3.176 5.525 C3.18 5.196 3.075 4.935 2.71 4.185 C2.71 4.185 1.273 1.418 1.273 1.418 C0.791 1.661 0.264 1.901 0.122 2.292 C0.122 2.292 0 1.526 0 1.526 C0 1.526 0.71 1.182 1.475 0.787 C2.365 0.328 2.962 0 2.962 0 " />
 </g>
 <g transform="translate(27.6152, 529.573)" style="fill:#002055; fill-rule:nonzero; stroke:none; stroke-width:1; stroke-linecap:butt; stroke-linejoin:miter; stroke-dasharray:none;" >
  <path d="M30.2246 8.416 C23.2774 5.1 17.8155 12.948 13.6963 21.574 C9.5772 30.199 6.8838 39.439 13.8311 42.756 C20.7784 46.067 26.2696 38.169 30.3887 29.543 C34.5078 20.917 37.1709 11.731 30.2246 8.416 Z M12.3077 45.945 C1.4434 40.761 0 28.79 5.3487 17.585 C10.7207 6.333 20.9619 0 31.7774 5.168 C42.5869 10.33 44.1114 22.272 38.7325 33.527 C33.3848 44.733 23.1709 51.133 12.3077 45.945 Z" />
 </g>
 <g transform="translate(70.6563, 542.306)" style="fill:#002055; fill-rule:nonzero; stroke:none; stroke-width:1; stroke-linecap:butt; stroke-linejoin:miter; stroke-dasharray:none;" >
  <path d="M17.8837 4.007 C25.2304 6.08 31.2097 7.469 31.2097 7.469 C31.2097 7.469 30.5737 14.045 30.5737 14.045 C28.6044 11.201 27.7001 10.507 21.4296 8.908 C21.4296 8.908 13.8271 34.474 13.8271 34.474 C13.2167 36.814 10.1835 45.667 11.1542 47.332 C11.1542 47.332 9.0419 46.882 5.6337 45.937 C1.8007 44.875 0 44.155 0 44.155 C1.9658 42.863 4.4384 35.295 5.247 32.219 C5.247 32.219 12.8886 6.484 12.8886 6.484 C6.3916 4.317 4.8818 4.165 1.7763 5.609 C1.7763 5.609 5.5419 0 5.5419 0 C5.5419 0 9.7841 1.712 17.8837 4.007 " />
 </g>
 <g transform="translate(103.158, 550.655)" style="fill:#002055; fill-rule:nonzero; stroke:none; stroke-width:1; stroke-linecap:butt; stroke-linejoin:miter; stroke-dasharray:none;" >
  <path d="M15.69 2.448 C22.931 3.542 29.752 4.161 29.752 4.161 C29.752 4.161 30.027 10.759 30.027 10.759 C27.321 8.351 26.302 7.573 19.153 6.673 C19.153 6.673 15.012 32.926 15.012 32.926 C14.721 35.332 13.183 44.464 14.373 45.977 C14.373 45.977 11.865 45.699 8.402 45.216 C4.939 44.723 2.81 44.235 2.81 44.235 C4.502 42.914 5.907 34.268 6.201 31.86 C6.201 31.86 10.443 5.28 10.443 5.28 C4.248 4.043 2.975 4.518 0 6.243 C0 6.243 2.697 0 2.697 0 C2.697 0 8.482 1.359 15.69 2.448 " />
 </g>
 <g transform="translate(134.795, 555.271)" style="fill:#002055; fill-rule:nonzero; stroke:none; stroke-width:1; stroke-linecap:butt; stroke-linejoin:miter; stroke-dasharray:none;" >
  <path d="M10.902 22.793 C10.902 22.793 10.356 40.436 10.356 40.436 C19.608 40.558 25.94 39.973 28.761 35.959 C28.761 35.959 27.346 43.975 27.346 43.975 C27.346 43.975 22.222 44.079 14.718 43.975 C6.473 43.856 0 43.318 0 43.318 C1.372 41.959 1.713 33.361 1.729 30.944 C1.729 30.944 2.483 13.628 2.483 13.628 C2.517 9.017 2.937 1.564 1.389 0 C8.091 0.462 7.238 0.454 13.393 0.693 C21.452 1.014 26.017 0.773 26.017 0.773 C26.017 0.773 27.03 7.393 27.03 7.393 C23.884 4.767 19.167 4.459 11.466 4.413 C11.466 4.413 11.042 19.221 11.042 19.221 C11.042 19.221 22.869 19.288 22.869 19.288 C23.934 19.3 24.001 19.894 23.998 21.08 C23.985 22.25 23.969 22.872 22.845 22.86 C22.845 22.86 10.902 22.793 10.902 22.793 " />
 </g>
 <g transform="translate(164.864, 553.263)" style="fill:#002055; fill-rule:nonzero; stroke:none; stroke-width:1; stroke-linecap:butt; stroke-linejoin:miter; stroke-dasharray:none;" >
  <path d="M32.492 30.112 C33.174 36.531 33.852 41.144 35.316 41.986 C34.949 42.65 33.789 43.521 32.249 43.685 C30.394 43.883 28.991 42.97 27.704 41.481 C27.704 41.481 6.733 17.425 6.733 17.425 C6.733 17.425 7.523 32.729 7.523 32.729 C7.777 35.135 8.054 44.253 9.551 45.47 C9.551 45.47 2.563 45.788 2.563 45.788 C3.779 44.286 3.455 35.598 3.198 33.187 C3.198 33.187 2.209 15.914 2.209 15.914 C1.953 13.508 1.502 3.955 0 2.748 C0 2.748 6.408 2.516 6.408 2.516 C6.408 2.516 27.902 28.044 27.902 28.044 C27.902 28.044 26.114 13.356 26.114 13.356 C25.858 10.941 24.549 2.189 23.104 0.972 C23.104 0.972 23.875 0.897 26.484 0.543 C29.088 0.19 30.035 0 30.035 0 C28.827 1.506 30.229 10.486 30.489 12.893 C30.489 12.893 32.492 30.112 32.492 30.112 " />
 </g>
 <g transform="translate(199.031, 544.898)" style="fill:#002055; fill-rule:nonzero; stroke:none; stroke-width:1; stroke-linecap:butt; stroke-linejoin:miter; stroke-dasharray:none;" >
  <path d="M37.727 29.375 C38.472 32.362 39.949 40.032 42.142 41.534 C42.142 41.534 38.824 42.494 36.797 43.117 C34.992 43.672 31.016 44.703 31.016 44.703 C31.953 43.046 29.863 33.839 29.285 31.541 C29.285 31.541 27.292 23.53 27.292 23.53 C27.292 23.53 13.966 26.799 13.966 26.799 C13.966 26.799 15.481 34.945 15.481 34.945 C15.918 37.579 17.307 46.441 19.104 47.523 C19.104 47.523 17.24 47.909 13.356 48.705 C10.104 49.374 7.838 49.732 7.838 49.732 C8.836 48.074 7.498 39.855 7.085 37.234 C7.085 37.234 3.855 20.012 3.855 20.012 C3.266 16.802 1.783 8.681 0 7.729 C0 7.729 1.73 7.401 5.534 6.661 C9.341 5.92 11.206 5.415 11.206 5.415 C10.268 7.343 11.921 15.136 12.371 17.866 C12.371 17.866 13.397 23.332 13.397 23.332 C13.397 23.332 26.51 20.135 26.51 20.135 C26.51 20.135 25.096 14.551 25.096 14.551 C24.325 11.592 22.697 4.494 20.875 3.177 C20.875 3.177 22.675 2.655 26.323 1.619 C29.973 0.589 31.545 0 31.545 0 C30.823 1.969 32.851 8.883 33.692 12.446 C33.692 12.446 37.727 29.375 37.727 29.375 " />
 </g>
 <g transform="translate(241.168, 537.32)" style="fill:#002055; fill-rule:nonzero; stroke:none; stroke-width:1; stroke-linecap:butt; stroke-linejoin:miter; stroke-dasharray:none;" >
  <path d="M17.576 23.942 C17.576 23.942 6.021 7.931 6.021 7.931 C6.021 7.931 6.837 28.041 6.837 28.041 C6.837 28.041 17.576 23.942 17.576 23.942 Z M19.936 26.744 C19.936 26.744 6.934 31.836 6.934 31.836 C6.934 31.836 7.385 38.976 7.385 38.976 C7.675 41.413 7.684 43.652 8.218 44.914 C8.479 45.541 8.93 45.956 9.358 46.18 C9.358 46.18 8.002 46.673 5.769 47.396 C3.533 48.119 2.306 48.474 2.306 48.474 C3.085 47.13 3.273 45.279 3.206 42.97 C3.206 42.97 2.061 9.118 2.061 9.118 C1.952 7.889 1.805 6.736 1.396 5.769 C1.035 4.906 0.426 4.422 0 4.06 C1.48 3.1 3.333 2.049 5.217 1.259 C8.204 0 9.464 0.051 11.643 2.592 C11.643 2.592 30.72 26.252 30.72 26.252 C34.187 30.767 37.255 33.805 39.25 34.411 C39.25 34.411 37.301 35.311 33.633 36.944 C29.967 38.572 27.54 39.498 27.54 39.498 C27.758 38.732 27.783 37.92 27.305 36.701 C26.795 35.383 24.918 33.153 23.707 31.462 C23.707 31.462 19.936 26.744 19.936 26.744 Z" />
 </g>
 <g transform="translate(261.976, 513.773)" style="fill:#002055; fill-rule:nonzero; stroke:none; stroke-width:1; stroke-linecap:butt; stroke-linejoin:miter; stroke-dasharray:none;" >
  <path d="M53.61 38.018 C50.994 39.78 49.036 41.131 49.036 41.131 C48.843 38.557 43.874 32.194 42.414 30.263 C42.414 30.263 31.208 15.644 31.208 15.644 C31.208 15.644 40.221 44.463 40.221 44.463 C39.871 45.036 39.232 45.836 38.638 46.285 C36.859 47.637 35.129 47.371 33.548 46.126 C33.548 46.126 12.21 28.436 12.21 28.436 C12.21 28.436 19.678 42.191 19.678 42.191 C21.505 45.676 25.026 52.926 27.396 53.641 C27.396 53.641 25.923 54.428 24.058 55.332 C22.208 56.228 21.075 56.755 21.075 56.755 C21.488 54.73 18.021 48.714 16.002 44.863 C16.002 44.863 7.691 29.231 7.691 29.231 C5.17 24.527 2.389 19.739 0 18.784 C1.847 17.888 2.406 17.614 5.048 16.31 C7.253 15.224 9.194 14.159 9.194 14.159 C9.194 14.159 33.219 34.596 33.219 34.596 C33.219 34.596 23.769 5.66 23.769 5.66 C23.769 5.66 25.035 4.801 27.437 3.198 C29.833 1.595 31.995 0 31.995 0 C32.176 2.588 37.179 9.186 39.002 11.547 C39.002 11.547 49.348 24.859 49.348 24.859 C51.544 27.599 55.646 33.696 58.567 34.394 C58.567 34.394 56.228 36.246 53.61 38.018 " />
 </g>
 <g transform="translate(278.348, 593.355)" style="fill:#002055; fill-rule:nonzero; stroke:none; stroke-width:1; stroke-linecap:butt; stroke-linejoin:miter; stroke-dasharray:none;" >
  <path d="M4.635 1.38 C4.635 1.38 5.814 2.891 5.814 2.891 C6.16 3.312 6.509 3.833 6.88 3.988 C6.88 3.988 6.572 4.208 6.273 4.409 C5.975 4.606 5.755 4.763 5.755 4.763 C5.672 4.355 5.172 3.724 5.007 3.504 C5.007 3.504 3.754 1.847 3.754 1.847 C3.754 1.847 4.78 5.116 4.78 5.116 C4.738 5.184 4.666 5.272 4.598 5.321 C4.33 5.528 4.131 5.41 3.951 5.268 C3.951 5.268 1.48 3.294 1.48 3.294 C1.48 3.294 2.445 4.859 2.445 4.859 C2.674 5.264 3.088 6.009 3.417 6.16 C3.417 6.16 3.235 6.269 3.012 6.399 C2.818 6.514 2.629 6.61 2.629 6.61 C2.674 6.214 2.175 5.437 2.027 5.167 C2.027 5.167 0.967 3.391 0.967 3.391 C0.724 2.987 0.341 2.397 0 2.298 C0 2.298 0.331 2.125 0.657 1.944 C0.862 1.831 1.067 1.699 1.191 1.632 C1.191 1.632 3.925 3.908 3.925 3.908 C3.925 3.908 2.874 0.664 2.874 0.664 C2.974 0.618 3.133 0.52 3.379 0.369 C3.694 0.176 3.956 0 3.956 0 C3.951 0.395 4.409 1.076 4.635 1.38 " />
 </g>
 <g transform="translate(25.9531, 593.325)" style="fill:#002055; fill-rule:nonzero; stroke:none; stroke-width:1; stroke-linecap:butt; stroke-linejoin:miter; stroke-dasharray:none;" >
  <path d="M43.7569 11.083 C45.9834 11.9 48.8565 12.897 48.8565 12.897 C46.4365 14.651 44.2149 21.628 42.7715 25.415 C42.7715 25.415 37.1914 40.896 37.1914 40.896 C35.6992 45.098 33.1533 51.188 34.0069 53.363 C34.0069 53.363 30.9365 52.302 28.4532 51.42 C26.3282 50.662 25.1211 50.258 22.8701 49.295 C25.6045 48.571 28.1826 39.472 29.0215 37.184 C29.0215 37.184 31.5752 29.96 31.5752 29.96 C31.5752 29.96 18.2032 24.384 18.2032 24.384 C18.2032 24.384 14.336 32.648 14.336 32.648 C13.0772 35.518 10.0645 42.018 10.7813 44.054 C10.7813 44.054 8.419 43.092 4.961 41.501 C0.8877 39.626 0 39.129 0 39.129 C2.8701 37.718 4.5694 33.086 6.7539 28.406 C6.7539 28.406 13.7481 12.919 13.7481 12.919 C16.1114 7.617 18.2451 3.021 18.085 0 C18.085 0 19.334 0.745 22.7725 2.29 C25.5117 3.522 26.9121 4.137 28.4492 4.755 C26.2735 5.621 23.2442 13.434 21.6446 16.94 C21.6446 16.94 19.5957 21.317 19.5957 21.317 C19.5957 21.317 32.6602 26.699 32.6602 26.699 C32.6602 26.699 34.6641 21.738 34.6641 21.738 C35.6026 19.204 38.8418 11.631 38.1436 9.038 C38.1436 9.038 40.8242 10.011 43.7569 11.083 " />
 </g>
 <g transform="translate(69.4658, 608.835)" style="fill:#002055; fill-rule:nonzero; stroke:none; stroke-width:1; stroke-linecap:butt; stroke-linejoin:miter; stroke-dasharray:none;" >
  <path d="M25.7061 6.455 C18.2617 4.498 14.416 13.031 12.0352 22.079 C9.6485 31.121 8.7901 40.508 16.2285 42.469 C23.6729 44.421 27.5401 35.829 29.916 26.786 C32.3032 17.74 33.1482 8.415 25.7061 6.455 Z M15.3496 45.814 C3.7031 42.75 0 31.473 3.0889 19.725 C6.1934 7.915 15.0127 0 26.6016 3.051 C38.1852 6.097 41.9672 17.328 38.8672 29.138 C35.7742 40.891 26.9981 48.877 15.3496 45.814 Z" />
 </g>
 <g transform="translate(110.823, 616)" style="fill:#002055; fill-rule:nonzero; stroke:none; stroke-width:1; stroke-linecap:butt; stroke-linejoin:miter; stroke-dasharray:none;" >
  <path d="M5.538 42.807 C5.538 42.807 6.279 42.006 6.783 40.375 C7.495 38.082 7.954 33.672 8.501 30.234 C8.501 30.234 11.762 5.021 11.762 5.021 C4.815 4.15 3.051 4.65 0 6.456 C0 6.456 2.862 0 2.862 0 C5.025 0.48 9.818 0.998 15.649 1.734 C19.551 2.222 31.173 3.271 31.173 3.271 C31.173 3.271 31.567 9.728 31.567 9.728 C29.005 6.763 26.345 6.494 20.555 6.039 C20.555 6.039 17.307 31.336 17.307 31.336 C17.016 33.692 15.725 41.864 17.005 44.283 C15.608 44.124 13.294 43.862 11.353 43.668 C9.343 43.462 6.695 43.004 5.538 42.807 " />
 </g>
 <g transform="translate(143.404, 619.228)" style="fill:#002055; fill-rule:nonzero; stroke:none; stroke-width:1; stroke-linecap:butt; stroke-linejoin:miter; stroke-dasharray:none;" >
  <path d="M28.314 30.822 C28.395 38.412 22.221 43.908 12.725 43.769 C5.34 43.66 1.478 40.621 0 39.385 C0 39.385 1.537 32.182 1.537 32.182 C3.83 36.772 7.63 40.108 11.908 40.176 C16.376 40.238 19.894 37.608 19.966 33.179 C20.012 29.96 18.241 28.015 10.785 24.136 C3.641 20.446 0.981 16.765 0.981 11.276 C0.981 3.803 7.482 0.008 15.119 0.005 C20.736 0 24.654 1.721 27.116 3.037 C27.116 3.037 25.529 9.637 25.529 9.637 C22.121 5.087 19.036 3.4 15.317 3.35 C11.652 3.29 9.056 5.289 9.081 9.055 C9.106 13.158 13.62 15.379 19.71 18.779 C26.711 22.696 28.273 26.623 28.314 30.822 " />
 </g>
 <g transform="translate(174.336, 617.618)" style="fill:#002055; fill-rule:nonzero; stroke:none; stroke-width:1; stroke-linecap:butt; stroke-linejoin:miter; stroke-dasharray:none;" >
  <path d="M31.962 9.18 C32.231 10.071 32.395 11.153 32.479 12.004 C32.552 12.787 32.59 13.825 32.496 14.806 C32.295 17.266 31.128 20.125 29.197 22.135 C26.248 25.216 22.405 26.747 17.31 26.984 C15.345 27.105 14.875 26.504 14.743 25.086 C14.743 25.086 14.731 24.778 14.731 24.778 C14.731 24.778 14.689 24.23 15.118 24.201 C15.118 24.201 15.611 24.153 15.611 24.153 C17.117 23.966 19.352 23.494 21.143 21.315 C22.861 19.073 23.449 16.093 23.15 12.886 C22.831 9.555 21.83 7.155 19.592 5.431 C17.647 3.937 15.363 3.453 13.011 3.638 C13.011 3.638 12.067 3.718 11.02 3.883 C11.02 3.883 10.406 3.937 10.46 4.539 C10.46 4.539 12.984 30.69 12.984 30.69 C13.203 32.991 13.831 41.095 15.72 42.767 C15.72 42.767 13.57 42.994 9.521 43.326 C6.434 43.579 4.027 43.641 4.027 43.641 C4.839 41.634 4.704 38.668 4.502 35.213 C4.502 35.213 2.545 14.591 2.545 14.591 C2.323 12.231 1.924 4.142 0 2.144 C0 2.144 5.176 1.379 14.752 0.474 C19.76 0 23.862 0.638 27.4 3.032 C29.715 4.59 31.306 6.861 31.962 9.18 " />
 </g>
 <g transform="translate(207.287, 608.232)" style="fill:#002055; fill-rule:nonzero; stroke:none; stroke-width:1; stroke-linecap:butt; stroke-linejoin:miter; stroke-dasharray:none;" >
  <path d="M38.193 26.998 C40.243 36.062 35.989 43.779 26.559 46.136 C19.932 47.793 10.389 45.361 7.725 33.735 C7.725 33.735 4.481 20.01 4.481 20.01 C3.627 16.167 2.231 9.364 0 7.592 C0 7.592 2.491 7.239 6.392 6.511 C10.292 5.782 12.105 5.349 12.105 5.349 C11.079 6.964 12.155 13.323 13.175 17.994 C13.175 17.994 17.316 35.442 17.316 35.442 C18.055 38.641 19.099 40.829 20.892 42.12 C22.221 43.081 23.996 43.342 25.844 43.005 C27.526 42.692 29.277 41.742 30.194 40.039 C31.167 38.25 31.162 35.664 30.413 32.468 C30.413 32.468 25.765 15.019 25.765 15.019 C24.492 10.217 23.028 4.206 21.455 3.199 C21.455 3.199 23.349 2.686 26.939 1.659 C29.656 0.885 31.273 0.414 32.445 0 C31.372 2.627 33.927 10.681 34.469 12.986 C34.469 12.986 38.193 26.998 38.193 26.998 " />
 </g>
 <g transform="translate(242.964, 599.696)" style="fill:#002055; fill-rule:nonzero; stroke:none; stroke-width:1; stroke-linecap:butt; stroke-linejoin:miter; stroke-dasharray:none;" >
  <path d="M44.863 31.958 C45.777 32.307 46.762 32.548 47.587 32.197 C47.493 32.766 46.959 33.902 46.063 34.819 C42.25 38.727 38.671 38.055 37.458 37.575 C30.882 35.067 19.886 25.322 19.432 24.258 C19.432 24.258 19.319 23.979 19.604 23.861 C19.604 23.861 20.004 23.685 20.004 23.685 C21.721 22.971 23.67 21.029 24.438 19.192 C25.668 16.498 25.461 14.079 24.212 11.117 C22.92 8.037 20.657 6.097 18.885 5.575 C16.264 4.801 14.307 5.415 13.116 5.89 C13.116 5.89 11.543 6.51 11.075 6.98 C11.075 6.98 10.759 7.242 11.126 8.314 C11.126 8.314 19.432 32.041 19.432 32.041 C20.694 35.531 22.887 42.339 24.873 43.487 C24.873 43.487 22.629 44.37 19.225 45.599 C15.821 46.829 13.752 47.4 13.752 47.4 C14.445 44.75 11.824 37.546 11.163 35.525 C11.163 35.525 5.791 19.503 5.791 19.503 C4.448 15.64 1.996 8.719 0 7.611 C0 7.611 3.922 6.513 12.738 2.81 C17.426 0.842 21.97 0 26.067 1.2 C28.555 1.93 30.234 3.179 31.609 5.171 C32.136 5.941 32.521 6.7 32.855 7.484 C33.161 8.213 33.372 9.051 33.512 9.828 C33.945 12.249 33.582 14.823 32.182 17.251 C32.182 17.251 30.919 19.696 28.224 21.614 C28.224 21.614 36.882 28.95 44.863 31.958 " />
 </g>
</svg>
