<svg height="512pt" viewBox="-64 0 512 512" width="512pt" xmlns="http://www.w3.org/2000/svg"><path d="m60.140625 442.808594c-.15625-51.664063-.140625-46.433594-.140625-46.808594 0-11.050781 8.949219-20 20-20h220c11.050781 0 20 8.949219 20 20 0 .375.015625-4.855469-.140625 46.808594 28.449219 4.703125 50.140625 29.410156 50.140625 59.191406h-360c0-29.78125 21.691406-54.488281 50.140625-59.191406zm0 0" fill="#656d88"/><path d="m365 150.519531c-20.171875-80.691406-98.308594-140.519531-163.261719-140.519531h-20.566406l29.828125 66.699219c50.4375 8.660156 88.003906 47.382812 98.171875 88.109375 16.179687 64.722656 2.238281 102.113281-11.683594 146.160156l.082031.03125h60.46875c12.882813-41.359375 24.710938-89.449219 6.960938-160.480469zm0 0" fill="#656d88"/><path d="m190.101562 214.519531c-1.171874-.488281-2.339843-1.039062-3.53125-1.628906-42.75-21.371094-70.308593 18.847656-73.898437 20.988281-11.671875 11.671875-30.59375 11.671875-42.25 0l-24.492187-24.480468c-7.808594-7.808594-7.808594-20.476563 0-28.289063l45.609374-45.609375c0-33 26.460938-59.75 59.460938-59.75v-65.75h30.171875c16.5 0 29.828125 13.378906 29.828125 29.878906v36.820313c50.4375 8.660156 88.003906 47.382812 98.171875 88.109375 16.179687 64.722656 2.238281 102.113281-11.683594 146.160156-4.265625 13.515625-12.019531 35.929688-3.289062 65.03125h-205.6875v-4.300781c4.066406-40.808594 25.039062-80.320313 58.207031-105.1875 18.550781-13.910157 33.292969-31.800781 43.382812-51.992188zm0 0" fill="#ed5575"/><path d="m200 442c0 5.523438-4.476562 10-10 10s-10-4.476562-10-10 4.476562-10 10-10 10 4.476562 10 10zm0 0"/><path d="m140.722656 258.507812c-33.28125 24.953126-56.078125 64.871094-61.621094 107.515626-16.125.476562-29.101562 13.734374-29.101562 29.976562v38.90625c-29.429688 8.675781-50 35.632812-50 67.09375 0 5.523438 4.476562 10 10 10h360c5.523438 0 10-4.476562 10-10 0-31.457031-20.566406-58.417969-50-67.09375v-38.90625c0-15.867188-12.386719-28.890625-27.996094-29.925781-3.273437-15.796875-1.765625-30.140625 2.835938-45.074219h53.199218c4.378907 0 8.246094-2.847656 9.550782-7.027344 13.035156-41.859375 25.410156-92.65625 7.113281-165.878906-21.351563-85.40625-103.664063-148.09375-172.964844-148.09375-16.039062 0-34.777343 0-50.738281 0-5.523438 0-10 4.476562-10 10v56.472656c-32.207031 4.679688-57.328125 31.636719-59.332031 64.757813l-42.808594 42.808593c-11.722656 11.722657-11.726563 30.707032 0 42.433594l24.484375 24.476563c15.515625 15.527343 40.351562 15.464843 55.84375.546875 6.28125-5.050782 25.71875-33.425782 56.890625-22.230469-9.125 15.1875-21.195313 28.625-35.355469 39.242187zm169.277344 137.492188v36h-80c-5.523438 0-10 4.476562-10 10s4.476562 10 10 10h80c23.777344 0 44.300781 16.566406 49.011719 40h-338.023438c4.695313-23.363281 25.15625-40 49.011719-40h80c5.523438 0 10-4.476562 10-10s-4.476562-10-10-10h-80v-36c0-5.515625 4.484375-10 10-10h220c5.515625 0 10 4.484375 10 10zm45.296875-243.054688c16.082031 64.339844 7.148437 108.75-4.652344 148.054688h-39.496093c12.425781-39.277344 22.953124-77.695312 7.722656-138.613281-10.519532-42.140625-47.589844-81.957031-97.871094-93.851563v-28.65625c0-6.804687-1.714844-13.214844-4.730469-18.828125 57.550781 8.105469 121.558594 62 139.027344 131.894531zm-160.40625 73.789063c20.171875 5.398437 37.34375-.910156 50.457031-7.386719 4.953125-2.445312 6.984375-8.445312 4.539063-13.398437-2.445313-4.953125-8.441407-6.980469-13.394531-4.535157-15.800782 7.804688-29.34375 10.523438-45.453126 2.53125-18.351562-9.179687-37.328124-9.652343-54.867187-1.378906-14.730469 6.949219-23.625 17.316406-30.574219 24.242188-7.769531 7.769531-20.339844 7.773437-28.109375 0l-24.488281-24.480469c-3.90625-3.90625-3.90625-10.238281 0-14.148437l45.609375-45.609376c1.875-1.875 2.929687-4.417968 2.929687-7.070312 0-27.433594 22.1875-49.75 49.460938-49.75 5.523438 0 10-4.476562 10-10v-55.75h20.171875c10.933594 0 19.828125 8.917969 19.828125 19.878906v36.820313c0 4.871093 3.507812 9.03125 8.308594 9.855469 46.394531 7.964843 80.902344 43.585937 90.160156 80.679687 14.941406 59.765625 3.460938 93.355469-11.515625 140.722656-5.875 18.601563-10.128906 34.914063-6.308594 58.042969h-182.34375c5.417969-36.398438 25.054688-70.222656 53.417969-91.488281 17.097656-12.824219 31.546875-29.21875 42.171875-47.777344zm0 0"/><path d="m160 136h-20c-5.523438 0-10 4.476562-10 10s4.476562 10 10 10h20c5.523438 0 10-4.476562 10-10s-4.476562-10-10-10zm0 0"/></svg>