<svg height="464pt" viewBox="0 0 464.0001 464" width="464pt" xmlns="http://www.w3.org/2000/svg"><g fill="#bddbff"><path d="m54.398438 82.820312c.753906-.894531 1.539062-1.777343 2.296874-2.65625-.800781.878907-1.574218 1.761719-2.296874 2.65625zm0 0"/><path d="m80.167969 56.660156c.886719-.800781 1.761719-1.542968 2.65625-2.304687-.894531.761719-1.769531 1.535156-2.65625 2.304687zm0 0"/><path d="m33.601562 111.636719c.230469-.375.488282-.746094.726563-1.128907-.214844.382813-.472656.753907-.726563 1.128907zm0 0"/><path d="m42.449219 98.308594c.800781-1.136719 1.597656-2.28125 2.398437-3.402344-.808594 1.128906-1.597656 2.265625-2.398437 3.402344zm0 0"/><path d="m25.015625 127.195312.402344-.800781c-.097657.25-.265625.503907-.402344.800781zm0 0"/><path d="m110.503906 34.347656c.382813-.230468.753906-.496094 1.144532-.726562-.382813.230468-.761719.496094-1.144532.726562zm0 0"/><path d="m127.199219 25.011719c-.261719.136719-.519531.304687-.800781.441406l.800781-.410156zm0 0"/><path d="m94.910156 44.867188c1.121094-.800782 2.265625-1.597657 3.410156-2.398438-1.144531.773438-2.320312 1.566406-3.410156 2.398438zm0 0"/><path d="m51.113281 377.1875c-.320312-.390625-.625-.800781-.9375-1.183594.3125.390625.617188.792969.9375 1.183594zm0 0"/><path d="m9.542969 297.867188c-.304688-1.039063-.589844-2.078126-.886719-3.128907.296875 1.050781.582031 2.058594.886719 3.128907zm0 0"/><path d="m40.527344 362.988281c-.191406-.28125-.398438-.550781-.589844-.839843.191406.289062.398438.558593.589844.839843zm0 0"/><path d="m31.382812 348.46875-1.285156-2.242188zm0 0"/><path d="m15.542969 315.476562c-.238281-.609374-.488281-1.207031-.71875-1.816406.230469.609375.480469 1.207032.71875 1.816406zm0 0"/><path d="m231.558594 463.996094c-.527344 0-1.046875-.039063-1.597656-.039063.542968-.007812 1.070312.039063 1.597656.039063zm0 0"/><path d="m214.847656 463.300781-2.945312-.226562c.984375.121093 1.960937.121093 2.945312.226562zm0 0"/><path d="m286.632812 457.46875-2.578124.589844zm0 0"/><path d="m321.398438 446.117188c-.644532.269531-1.308594.511718-1.964844.800781.65625-.289063 1.320312-.523438 1.964844-.800781zm0 0"/><path d="m305.105469 452.171875c-.875.289063-1.738281.609375-2.617188.886719.878907-.261719 1.742188-.597656 2.617188-.886719zm0 0"/><path d="m337.894531 438.46875h-.070312l-1.472657.75c.511719-.285156 1.039063-.488281 1.542969-.75zm0 0"/><path d="m250.777344 463.195312-3.007813.234376c1.03125-.097657 2.007813-.167969 3.007813-.234376zm0 0"/><path d="m459.6875 187.140625-.054688.054687c.167969.847657.304688 1.710938.464844 2.5625-.160156-.875-.242187-1.761718-.410156-2.617187zm0 0"/><path d="m462.097656 202.730469c.175782 1.378906.375 2.753906.527344 4.136719-.152344-1.382813-.351562-2.75-.527344-4.136719zm0 0"/><path d="m462.175781 260.796875c0-.160156 0-.320313.039063-.480469-.039063.351563-.085938.703125-.125 1.054688.015625-.199219.0625-.390625.085937-.574219zm0 0"/><path d="m463.777344 240.738281c0 .714844 0 1.433594-.050782 2.136719.035157-.710938.027344-1.421875.050782-2.136719zm0 0"/><path d="m442.039062 330.597656c.105469-.234375.183594-.472656.296876-.699218-.105469.226562-.199219.449218-.3125.671874zm0 0"/><path d="m449.359375 313.1875c-.199219.527344-.414063 1.046875-.617187 1.601562.203124-.554687.417968-1.074218.617187-1.601562zm0 0"/><path d="m463.753906 222.132812c.0625 1.496094.078125 3.007813.109375 4.511719-.03125-1.503906-.046875-3.007812-.109375-4.511719zm0 0"/><path d="m455.398438 294.539062c-.300782 1.097657-.605469 2.191407-.933594 3.289063.328125-1.097656.632812-2.191406.933594-3.289063zm0 0"/><path d="m353.320312 34.234375c1.273438.800781 2.519532 1.601563 3.777344 2.402344-1.257812-.785157-2.503906-1.617188-3.777344-2.402344zm0 0"/><path d="m381.601562 54.75c.941407.796875 1.871094 1.597656 2.804688 2.398438-.910156-.785157-1.839844-1.601563-2.804688-2.398438zm0 0"/><path d="m366.894531 43.300781c1.015625.726563 2.058594 1.429688 3.058594 2.175781-1.007813-.746093-2.042969-1.441406-3.058594-2.175781zm0 0"/><path d="m304.3125 11.546875c1.464844.480469 2.925781.976563 4.382812 1.488281-1.457031-.511718-2.917968-1.007812-4.382812-1.488281zm0 0"/><path d="m339.703125 26.394531c-.886719-.46875-1.816406-.839843-2.703125-1.292969 1.425781.726563 2.871094 1.4375 4.28125 2.199219-.527344-.257812-1.042969-.59375-1.578125-.90625zm0 0"/><path d="m322.398438 18.261719c1.25.527343 2.464843 1.117187 3.707031 1.671875-1.304688-.554688-2.488281-1.144532-3.707031-1.671875zm0 0"/><path d="m357.097656 36.660156c3.308594 2.132813 6.578125 4.347656 9.796875 6.640625-3.210937-2.300781-6.476562-4.511719-9.796875-6.640625zm0 0"/><path d="m462.625 206.867188c.53125 5.078124.910156 10.167968 1.128906 15.265624-.214844-5.15625-.589844-10.246093-1.128906-15.265624zm0 0"/><path d="m341.28125 27.332031c4.0625 2.164063 8.078125 4.464844 12.039062 6.902344-3.9375-2.417969-7.949218-4.722656-12.039062-6.902344zm0 0"/><path d="m462.214844 260.308594c.707031-5.753906 1.242187-11.550782 1.511718-17.433594-.285156 5.824219-.789062 11.636719-1.511718 17.433594zm0 0"/></g><path d="m169.097656 169.09375 103.292969-16.410156.5625 1.136718 37.335937-71.28125-38.578124-79.078124c5.867187.984374 11.679687 2.203124 17.433593 3.648437-54.375-13.769531-111.898437-7.398437-161.945312 17.933594l-13.96875 88.160156zm0 0" fill="#e6e7e8"/><path d="m318.320312 242.75 80.617188 10.117188-.167969-.390626 60.863281-65.28125c-8.859374-45.1875-31-86.707031-63.585937-119.246093 1.097656 1.054687 2.132813 2.167969 3.113281 3.335937l-88.304687 12.390625-.566407-1.136719-37.335937 71.28125 45.367187 88.917969 1.601563 3.203125-74 73.957032-.457031-.222657 12.160156 78.914063.679688-.683594 79.519531 40.53125c45.679687-23.476562 82.316406-61.402344 104.199219-107.867188l-43.085938-77.703124zm0 0" fill="#e6e7e8"/><path d="m257.601562 398.589844-12.160156-78.914063-92.800781-47.289062.457031-2.832031-73.65625 35.074218-.058594.054688-16.640624 85.816406c-4.082032-4.335938-7.960938-8.773438-11.628907-13.3125 39.597657 49.414062 97.707031 80.453125 160.796875 85.886719-5.597656-.484375-11.199218-1.132813-16.726562-2.03125zm0 0" fill="#e6e7e8"/><path d="m326.070312 19.933594c3.683594 1.628906 7.324219 3.363281 10.929688 5.199218-3.589844-1.824218-7.230469-3.558593-10.929688-5.199218zm0 0" fill="#bddbff"/><path d="m79.488281 304.628906 73.65625-35.03125 15.953125-100.464844-55.890625-55.890624-88.152343 13.953124c-16.503907 32.46875-25.0898442 68.378907-25.054688 104.800782.0195312 9.285156.589844 18.558594 1.710938 27.777344l78.066406 43.199218zm0 0" fill="#e6e7e8"/><path d="m15.542969 315.476562c4.085937 10.59375 8.953125 20.875 14.554687 30.75-2.691406-4.796874-5.242187-9.597656-7.570312-14.503906-2.527344-5.328125-4.863282-10.765625-6.984375-16.246094zm0 0" fill="#bddbff"/><path d="m369.953125 45.476562c4 2.945313 7.855469 6.046876 11.671875 9.273438-3.792969-3.203125-7.671875-6.3125-11.671875-9.273438zm0 0" fill="#bddbff"/><path d="m250.777344 463.195312c11.203125-.890624 22.324218-2.601562 33.277344-5.109374-5.597657 1.261718-11.199219 2.398437-16.796876 3.199218-5.480468.839844-10.976562 1.4375-16.480468 1.910156zm0 0" fill="#bddbff"/><path d="m464 231.996094c0-1.792969-.097656-3.566406-.136719-5.351563.105469 4.695313.097657 9.398438-.085937 14.09375.109375-2.902343.222656-5.804687.222656-8.742187zm0 0" fill="#bddbff"/><path d="m384.433594 57.179688c3.949218 3.457031 7.855468 7 11.613281 10.769531-3.734375-3.738281-7.640625-7.296875-11.613281-10.769531zm0 0" fill="#bddbff"/><path d="m460.097656 189.757812c.789063 4.3125 1.453125 8.636719 2 12.972657-.550781-4.355469-1.21875-8.679688-2-12.972657zm0 0" fill="#bddbff"/><path d="m232 463.996094c5.304688 0 10.550781-.238282 15.769531-.59375-5.394531.371094-10.800781.59375-16.210937.585937zm0 0" fill="#bddbff"/><path d="m229.976562 463.949219c-5.050781-.050781-10.09375-.265625-15.128906-.648438 5 .359375 10.039063.597657 15.128906.648438zm0 0" fill="#bddbff"/><path d="m308.695312 13.035156c4.601563 1.601563 9.167969 3.3125 13.671876 5.226563-4.480469-1.898438-9.054688-3.609375-13.671876-5.226563zm0 0" fill="#bddbff"/><path d="m39.9375 362.148438c-3.042969-4.472657-5.867188-9.046876-8.554688-13.679688 2.714844 4.65625 5.539063 9.238281 8.554688 13.679688zm0 0" fill="#bddbff"/><path d="m50.175781 375.996094c-3.390625-4.265625-6.609375-8.605469-9.648437-13.015625 3.066406 4.464843 6.296875 8.792969 9.648437 13.015625zm0 0" fill="#bddbff"/><path d="m336.351562 439.195312c-4.917968 2.480469-9.894531 4.800782-14.953124 6.929688 5.089843-2.128906 10.058593-4.464844 14.953124-6.929688zm0 0" fill="#bddbff"/><path d="m462.089844 261.363281c-1.394532 11.210938-3.628906 22.300781-6.691406 33.175781 3.035156-10.878906 5.273437-21.96875 6.691406-33.175781zm0 0" fill="#bddbff"/><path d="m454.464844 297.828125c-1.527344 5.167969-3.199219 10.296875-5.105469 15.359375 1.878906-5.039062 3.570313-10.167969 5.105469-15.359375zm0 0" fill="#bddbff"/><path d="m14.824219 313.660156c-1.96875-5.207031-3.710938-10.480468-5.28125-15.792968 1.585937 5.34375 3.34375 10.609374 5.28125 15.792968zm0 0" fill="#bddbff"/><path d="m448.742188 314.765625c-1.960938 5.101563-4.09375 10.148437-6.398438 15.132813 2.300781-4.949219 4.433594-9.992188 6.398438-15.132813zm0 0" fill="#bddbff"/><path d="m319.433594 446.890625c-4.722656 1.925781-9.496094 3.6875-14.328125 5.28125 4.847656-1.605469 9.621093-3.363281 14.328125-5.28125zm0 0" fill="#bddbff"/><path d="m302.488281 453.058594c-5.242187 1.664062-10.527343 3.136718-15.855469 4.410156 5.367188-1.296875 10.648438-2.753906 15.855469-4.410156zm0 0" fill="#bddbff"/><path d="m82.824219 54.394531c3.945312-3.316406 7.976562-6.476562 12.085937-9.488281-4.132812 3.003906-8.160156 6.167969-12.085937 9.488281zm0 0" fill="#bddbff"/><path d="m98.320312 42.445312c4-2.832031 8.046876-5.554687 12.183594-8.097656-4.160156 2.570313-8.207031 5.28125-12.183594 8.097656zm0 0" fill="#bddbff"/><path d="m67.953125 67.949219c3.949219-3.953125 8.054687-7.671875 12.214844-11.289063-4.167969 3.632813-8.296875 7.335938-12.214844 11.289063zm0 0" fill="#bddbff"/><path d="m111.648438 33.597656c4.800781-2.929687 9.742187-5.601562 14.734374-8.167968-5.007812 2.566406-9.941406 5.277343-14.734374 8.167968zm0 0" fill="#bddbff"/><path d="m56.664062 80.164062c3.617188-4.160156 7.335938-8.265624 11.289063-12.214843-3.953125 3.917969-7.648437 8.046875-11.289063 12.214843zm0 0" fill="#bddbff"/><path d="m289.273438 7.140625c5.0625 1.261719 10.0625 2.792969 15.039062 4.40625-4.945312-1.613281-9.914062-3.117187-15.039062-4.40625zm0 0" fill="#bddbff"/><path d="m8.65625 294.738281c-3.21875-11.417969-5.535156-23.074219-6.929688-34.855469 1.414063 11.78125 3.730469 23.433594 6.929688 34.855469zm0 0" fill="#bddbff"/><path d="m34.351562 110.507812c2.535157-4.136718 5.265626-8.191406 8.097657-12.199218-2.816407 3.984375-5.539063 8.039062-8.097657 12.199218zm0 0" fill="#bddbff"/><path d="m25.457031 126.394531c2.535157-4.984375 5.238281-9.902343 8.167969-14.734375-2.914062 4.769532-5.625 9.703125-8.167969 14.734375zm0 0" fill="#bddbff"/><path d="m44.863281 94.90625c3.015625-4.109375 6.183594-8.140625 9.503907-12.085938-3.296876 3.917969-6.464844 7.949219-9.503907 12.085938zm0 0" fill="#bddbff"/><path d="m272.390625 152.683594-103.292969 16.410156-15.953125 100.460938-.457031 2.832031 92.777344 47.289062.457031.222657 73.980469-73.980469-1.582032-3.179688-45.367187-88.917969zm0 0" fill="#57565c"/><path d="m127.199219 25.042969-.800781.410156c-4.992188 2.535156-9.910157 5.238281-14.734376 8.167969-.390624.230468-.761718.496094-1.144531.726562-4.136719 2.542969-8.183593 5.265625-12.183593 8.097656-1.144532.796876-2.289063 1.597657-3.40625 2.398438-4.113282 3.019531-8.144532 6.183594-12.089844 9.488281-.894532.800781-1.769532 1.535157-2.65625 2.304688-4.160156 3.617187-8.261719 7.335937-12.214844 11.289062-3.953125 3.949219-7.671875 8.054688-11.289062 12.214844-.800782.878906-1.542969 1.757813-2.296876 2.65625-3.328124 3.945313-6.496093 7.976563-9.503906 12.085937-.796875 1.121094-1.597656 2.265626-2.398437 3.402344-2.832031 4-5.558594 8.0625-8.097657 12.199219-.238281.382813-.496093.75-.726562 1.128906-2.929688 4.796875-5.601562 9.75-8.167969 14.734375l-.398437.800782 88.148437-13.96875zm0 0" fill="#57565c"/><path d="m79.433594 304.683594.054687-.054688.289063-1.601562-78.066406-43.199219v.113281c1.394531 11.78125 3.710937 23.433594 6.929687 34.855469.296875 1.046875.582031 2.085937.886719 3.128906 1.601562 5.308594 3.3125 10.582031 5.28125 15.789063.230468.609375.480468 1.210937.71875 1.816406 2.121094 5.480469 4.417968 10.914062 6.984375 16.25 2.328125 4.910156 4.878906 9.734375 7.570312 14.503906l1.285157 2.238282c2.6875 4.632812 5.511718 9.207031 8.554687 13.679687.191406.289063.398437.5625.589844.839844 3.050781 4.367187 6.273437 8.6875 9.664062 12.953125.3125.390625.617188.800781.9375 1.183594 3.679688 4.554687 7.554688 8.992187 11.628907 13.3125zm0 0" fill="#57565c"/><path d="m257.601562 398.589844-62.402343 62.453125c5.554687.898437 11.136719 1.546875 16.730469 2.03125l2.941406.226562c5.039062.378907 10.082031.59375 15.128906.648438.535156 0 1.054688 0 1.601562.039062 5.40625 0 10.816407-.214843 16.207032-.585937l3.007812-.230469c5.503906-.449219 11-1.046875 16.464844-1.902344 5.597656-.800781 11.246094-1.945312 16.800781-3.203125l2.574219-.589844c5.332031-1.28125 10.617188-2.75 15.855469-4.410156.878906-.277344 1.746093-.597656 2.617187-.886718 4.800782-1.597657 9.574219-3.359376 14.328125-5.28125.65625-.261719 1.320313-.503907 1.96875-.796876 5.054688-2.113281 10.03125-4.449218 14.949219-6.929687l1.472656-.75-79.519531-40.53125zm0 0" fill="#57565c"/><path d="m463.777344 240.738281c.183594-4.695312.191406-9.398437.085937-14.09375 0-1.503906-.046875-3.015625-.109375-4.511719-.21875-5.097656-.597656-10.1875-1.128906-15.265624-.152344-1.382813-.351562-2.757813-.527344-4.136719-.535156-4.335938-1.203125-8.660157-2-12.972657-.160156-.851562-.296875-1.714843-.464844-2.5625l-60.863281 65.28125.167969.390626 43.085938 77.703124c.113281-.222656.207031-.445312.3125-.671874 2.320312-4.980469 4.453124-10.023438 6.398437-15.132813.203125-.53125.417969-1.050781.617187-1.601563 1.898438-5.0625 3.578126-10.191406 5.105469-15.359374.328125-1.097657.632813-2.191407.933594-3.289063 3.058594-10.875 5.296875-21.964844 6.691406-33.175781 0-.351563.085938-.703125.125-1.054688.726563-5.804687 1.230469-11.613281 1.511719-17.433594.042969-.679687.035156-1.398437.058594-2.113281zm0 0" fill="#57565c"/><path d="m310.289062 82.539062.566407 1.136719 88.34375-12.390625c-.976563-1.167968-2.015625-2.28125-3.109375-3.335937-3.761719-3.769531-7.664063-7.3125-11.617188-10.769531-.9375-.800782-1.863281-1.597657-2.808594-2.398438-3.816406-3.199219-7.703124-6.328125-11.671874-9.273438-1-.742187-2.039063-1.449218-3.054688-2.175781-3.203125-2.304687-6.46875-4.515625-9.800781-6.640625-1.257813-.800781-2.503907-1.640625-3.777344-2.398437-3.957031-2.433594-7.96875-4.734375-12.039063-6.90625-1.410156-.757813-2.855468-1.46875-4.28125-2.199219-3.609374-1.828125-7.253906-3.5625-10.925781-5.199219-1.242187-.550781-2.457031-1.144531-3.707031-1.671875-4.503906-1.914062-9.070312-3.625-13.671875-5.222656-1.453125-.535156-2.914063-1.03125-4.382813-1.488281-4.976562-1.601563-9.976562-3.144531-15.039062-4.410157h-.128906c-5.769532-1.445312-11.582032-2.660156-17.429688-3.648437zm0 0" fill="#57565c"/></svg>